<svg width="129" height="128" viewBox="0 0 129 128" fill="none" xmlns="http://www.w3.org/2000/svg">
<g clip-path="url(#clip0)">
<path d="M128.933 122.672C128.933 124.271 128.396 125.603 127.322 126.668C126.248 127.467 125.174 128 123.563 128H5.43632C4.09409 128 2.75161 127.467 1.67762 126.668C0.603631 125.603 0.0668945 124.271 0.0668945 122.672V44.6201H128.933V122.672Z" fill="#FFD15C"/>
<path d="M127.322 126.668C126.248 127.467 125.174 128 123.563 128H5.43643C4.09421 128 2.75172 127.467 1.67773 126.668L64.4998 73.124L127.322 126.668Z" fill="#F8B64C"/>
<path d="M128.933 44.6201L110.677 57.6731L67.9899 88.0417C65.8422 89.6399 62.889 89.6399 60.7413 88.0417L18.3229 57.6731L0.0668945 44.6201L18.3229 31.567L58.0566 3.32975L61.0098 1.19868C63.1575 -0.399559 66.1107 -0.399559 68.2584 1.19868L71.2116 3.32975L90.2731 16.9157L99.6695 23.5753L110.677 31.567L128.933 44.6201Z" fill="#40596B"/>
<path d="M110.677 19.8461V57.6732L67.9903 88.0418C65.8425 89.64 62.8893 89.64 60.7416 88.0418L18.3232 57.6732V8.65763C18.3232 5.72732 20.7395 3.32983 23.6927 3.32983H93.7634L110.677 19.8461Z" fill="#F2F2F2"/>
<path d="M94.0318 15.5839C94.0318 17.9814 95.911 19.8461 98.3272 19.8461H110.677L94.0315 3.32983L94.0318 15.5839Z" fill="#CDD6E0"/>
<path d="M80.34 56.8742H84.6354C83.2932 59.8045 81.1452 61.9356 78.192 63.5338C74.9703 65.3985 70.9434 66.1977 66.1109 66.1977C61.547 66.1977 57.5198 65.3985 54.2981 63.8003C51.0764 62.202 48.3917 60.0707 46.781 56.8742C45.1702 53.9439 44.3647 50.4808 44.3647 47.0179C44.3647 43.0221 45.1702 39.559 47.0495 36.0959C48.9287 32.6327 51.3449 30.2352 54.5666 28.637C57.7883 27.0387 61.5467 26.2395 65.5739 26.2395C69.0641 26.2395 72.2856 27.0387 74.9703 28.3706C77.655 29.7024 79.8027 31.5673 81.1452 34.2312C82.4874 36.6287 83.2929 39.559 83.2929 42.4893C83.2929 45.9525 82.2189 49.1489 80.0712 52.0792C77.3865 55.8088 73.8963 57.407 69.6009 57.407C68.5269 57.407 67.4532 57.1406 66.9162 56.8742C66.3792 56.3414 65.8422 55.8086 65.8422 55.0096C64.2315 56.6078 62.352 57.407 60.2043 57.407C57.788 57.407 55.9088 56.6078 54.5663 55.0096C52.9556 53.4113 52.1501 51.28 52.1501 48.6161C52.1501 45.4194 52.9556 42.4891 54.8348 39.5587C56.9826 36.362 59.9358 34.7638 63.426 34.7638C65.8422 34.7638 67.7214 35.8294 69.0639 37.6941L69.6009 35.2966H75.2388L72.0171 50.2143C71.7486 51.28 71.7486 51.8126 71.7486 52.079C71.7486 52.3454 71.7486 52.6118 72.0171 52.8782C72.2856 53.1447 72.2856 53.1447 72.5541 53.1447C73.0911 53.1447 74.1648 52.6118 75.2388 51.8128C76.581 50.7472 77.9235 49.4153 78.729 47.5507C79.5345 45.686 80.0712 43.8211 80.0712 41.9565C80.0712 38.4933 78.729 35.563 76.3125 33.432C73.8963 31.0345 70.4061 29.9688 65.8422 29.9688C62.0835 29.9688 58.862 30.7681 56.1773 32.3663C53.4926 33.9645 51.6134 36.0959 50.2709 38.7598C48.9284 41.4237 48.3917 44.354 48.3917 47.5507C48.3917 50.481 49.1972 53.1449 50.5394 55.5424C52.1501 57.9399 54.0296 59.8045 56.7143 60.8702C59.399 61.9359 62.3522 62.4684 65.8424 62.4684C69.0641 62.4684 72.0173 61.9356 74.4336 61.1366C76.8498 60.0707 78.729 58.7389 80.34 56.8742ZM57.5198 48.3497C57.5198 50.2143 57.7883 51.28 58.5938 52.3454C59.3993 53.1447 60.2045 53.6772 61.2785 53.6772C62.084 53.6772 62.8892 53.4108 63.4262 53.1444C63.9632 52.878 64.5002 52.3452 65.0369 51.8126C65.8424 51.0133 66.3794 49.6815 66.9162 48.083C67.4532 46.4848 67.7217 44.8863 67.7217 43.5545C67.7217 41.9562 67.4532 40.8906 66.6477 39.8249C65.8422 39.0257 65.0369 38.4931 63.963 38.4931C62.889 38.4931 61.5467 39.0259 60.7413 39.8249C59.6673 40.6242 58.862 41.956 58.325 43.8206C57.7883 45.4194 57.5198 47.0176 57.5198 48.3497Z" fill="#FF7058"/>
</g>
<defs>
<clipPath id="clip0">
<rect width="129" height="128" fill="white"/>
</clipPath>
</defs>
</svg>
