<svg width="85" height="17" viewBox="0 0 85 17" fill="none" xmlns="http://www.w3.org/2000/svg">
<path d="M32.5833 6.89915L27.4904 6.45998L25.5 1.77081L23.5095 6.46706L18.4166 6.89915L22.2841 10.2496L21.1225 15.2291L25.5 12.5871L29.8775 15.2291L28.7229 10.2496L32.5833 6.89915Z" fill="#FFD600"/>
<path d="M15.5833 6.89915L10.4904 6.45998L8.49996 1.77081L6.50954 6.46706L1.41663 6.89915L5.28413 10.2496L4.12246 15.2291L8.49996 12.5871L12.8775 15.2291L11.7229 10.2496L15.5833 6.89915Z" fill="#FFD600"/>
<path d="M49.5833 6.89915L44.4904 6.45998L42.5 1.77081L40.5095 6.46706L35.4166 6.89915L39.2841 10.2496L38.1225 15.2291L42.5 12.5871L46.8775 15.2291L45.7229 10.2496L49.5833 6.89915Z" fill="#FFD600"/>
<path d="M83.5833 6.89915L78.4904 6.45998L76.5 1.77081L74.5095 6.46706L69.4166 6.89915L73.2841 10.2496L72.1225 15.2291L76.5 12.5871L80.8775 15.2291L79.7229 10.2496L83.5833 6.89915Z" fill="#FFD600"/>
<path d="M66.5833 6.89915L61.4904 6.45998L59.5 1.77081L57.5095 6.46706L52.4166 6.89915L56.2841 10.2496L55.1225 15.2291L59.5 12.5871L63.8775 15.2291L62.7229 10.2496L66.5833 6.89915Z" fill="#FFD600"/>
</svg>
