<svg width="84" height="17" viewBox="0 0 84 17" fill="none" xmlns="http://www.w3.org/2000/svg">
<path d="M32.5833 6.89915L27.4904 6.45998L25.5 1.77081L23.5095 6.46706L18.4166 6.89915L22.2841 10.2496L21.1225 15.2291L25.5 12.5871L29.8775 15.2291L28.7229 10.2496L32.5833 6.89915Z" fill="#FFD600"/>
<path d="M15.5833 6.89915L10.4904 6.45998L8.49996 1.77081L6.50954 6.46706L1.41663 6.89915L5.28413 10.2496L4.12246 15.2291L8.49996 12.5871L12.8775 15.2291L11.7229 10.2496L15.5833 6.89915Z" fill="#FFD600"/>
<path d="M49.5833 6.89915L44.4904 6.45998L42.5 1.77081L40.5095 6.46706L35.4166 6.89915L39.2841 10.2496L38.1225 15.2291L42.5 12.5871L46.8775 15.2291L45.7229 10.2496L49.5833 6.89915Z" fill="#FFD600"/>
<path d="M65.5833 6.89915L60.4904 6.45998L58.5 1.77081L56.5095 6.46706L51.4166 6.89915L55.2841 10.2496L54.1225 15.2291L58.5 12.5871L62.8775 15.2291L61.7229 10.2496L65.5833 6.89915Z" fill="#FFD600"/>
<path fill-rule="evenodd" clip-rule="evenodd" d="M77.4904 6.45998L82.5833 6.89915L78.7229 10.2496L79.8775 15.2291L75.5 12.5871L71.1225 15.2291L72.2841 10.2496L68.4166 6.89915L73.5095 6.46706L75.5 1.77081L77.4904 6.45998ZM72.8366 12.8704L75.5 11.2625L78.1704 12.8775L77.4621 9.84579L79.8137 7.80578L76.7112 7.53662L75.5 4.67495L74.2958 7.52953L71.1933 7.7987L73.545 9.8387L72.8366 12.8704Z" fill="black" fill-opacity="0.54"/>
</svg>
