<svg width="28" height="30" viewBox="0 0 28 30" fill="none" xmlns="http://www.w3.org/2000/svg">
<path d="M19.1 0H8.10001C3.60001 0 0 3.99188 0 8.87084V20.9573C0 25.8362 3.60001 29.8281 8.10001 29.8281H19.1C23.6 29.8281 27.2 25.8362 27.2 20.9573V8.87084C27.2 3.99188 23.6 0 19.1 0ZM24.5 21.0682C24.5 24.2839 22.1 26.9451 19.1 26.9451H8.10001C5.10001 26.9451 2.69998 24.2839 2.69998 21.0682V8.9817C2.69998 5.76602 5.10001 3.10471 8.10001 3.10471H19.1C22.1 3.10471 24.5 5.76602 24.5 8.9817V21.0682Z" fill="white"/>
<path d="M13.5996 7.20752C9.69961 7.20752 6.59961 10.6449 6.59961 14.9693C6.59961 19.1829 9.69961 22.7311 13.5996 22.7311C17.4996 22.7311 20.5996 19.2938 20.5996 14.9693C20.5996 10.6449 17.4996 7.20752 13.5996 7.20752ZM13.5996 19.7372C11.1996 19.7372 9.29959 17.6305 9.29959 14.9693C9.29959 12.3081 11.1996 10.2013 13.5996 10.2013C15.9996 10.2013 17.8996 12.3081 17.8996 14.9693C17.8996 17.6305 15.9996 19.7372 13.5996 19.7372Z" fill="white"/>
<path d="M20.7 9.20414C21.6389 9.20414 22.4 8.35992 22.4 7.31845C22.4 6.27698 21.6389 5.43262 20.7 5.43262C19.7611 5.43262 19 6.27698 19 7.31845C19 8.35992 19.7611 9.20414 20.7 9.20414Z" fill="white"/>
</svg>
