<svg width="262" height="221" viewBox="0 0 262 221" fill="none" xmlns="http://www.w3.org/2000/svg">
<rect width="158" height="153" fill="#3CB3B3"/>
<path fill-rule="evenodd" clip-rule="evenodd" d="M124.558 26.2458H103.119L92.9455 45.9836H83.082L93.2553 26.2458H12.3936V221H261.18V26.2458H155.536L134.716 66.6393H103.738L124.558 26.2458Z" fill="#ECE6E5"/>
<path d="M34.8252 141V133.891H37.1494C37.9209 133.891 38.5003 134.05 38.8877 134.369C39.2783 134.688 39.4736 135.16 39.4736 135.785C39.4736 136.117 39.3792 136.412 39.1904 136.669C39.0016 136.923 38.7445 137.12 38.4189 137.26C38.8031 137.367 39.1058 137.572 39.3271 137.875C39.5518 138.174 39.6641 138.533 39.6641 138.949C39.6641 139.587 39.4574 140.089 39.0439 140.453C38.6305 140.818 38.0462 141 37.291 141H34.8252ZM35.7627 137.675V140.233H37.3105C37.7467 140.233 38.0902 140.121 38.3408 139.896C38.5947 139.669 38.7217 139.356 38.7217 138.959C38.7217 138.103 38.2562 137.675 37.3252 137.675H35.7627ZM35.7627 136.923H37.1787C37.5889 136.923 37.916 136.82 38.1602 136.615C38.4076 136.41 38.5312 136.132 38.5312 135.78C38.5312 135.39 38.4173 135.106 38.1895 134.931C37.9616 134.752 37.6149 134.662 37.1494 134.662H35.7627V136.923Z" fill="black"/>
<path d="M44.1758 140.478C43.8242 140.891 43.3083 141.098 42.6279 141.098C42.0648 141.098 41.6351 140.935 41.3389 140.609C41.0459 140.281 40.8978 139.796 40.8945 139.154V135.717H41.7979V139.13C41.7979 139.931 42.1234 140.331 42.7744 140.331C43.4645 140.331 43.9235 140.074 44.1514 139.56V135.717H45.0547V141H44.1953L44.1758 140.478Z" fill="black"/>
<path d="M49.5078 139.599C49.5078 139.354 49.415 139.166 49.2295 139.032C49.0472 138.896 48.7266 138.778 48.2676 138.681C47.8118 138.583 47.4489 138.466 47.1787 138.329C46.9118 138.192 46.7132 138.03 46.583 137.841C46.4561 137.652 46.3926 137.427 46.3926 137.167C46.3926 136.734 46.5749 136.368 46.9395 136.068C47.3073 135.769 47.776 135.619 48.3457 135.619C48.9447 135.619 49.4297 135.774 49.8008 136.083C50.1751 136.392 50.3623 136.788 50.3623 137.27H49.4541C49.4541 137.022 49.3483 136.809 49.1367 136.63C48.9284 136.451 48.6647 136.361 48.3457 136.361C48.0169 136.361 47.7598 136.433 47.5742 136.576C47.3887 136.719 47.2959 136.907 47.2959 137.138C47.2959 137.356 47.3822 137.52 47.5547 137.631C47.7272 137.742 48.0381 137.847 48.4873 137.948C48.9398 138.049 49.306 138.17 49.5859 138.31C49.8659 138.45 50.0726 138.619 50.2061 138.817C50.3428 139.013 50.4111 139.252 50.4111 139.535C50.4111 140.007 50.2223 140.386 49.8447 140.673C49.4671 140.956 48.9772 141.098 48.375 141.098C47.9518 141.098 47.5775 141.023 47.252 140.873C46.9264 140.723 46.6709 140.515 46.4854 140.248C46.3031 139.978 46.2119 139.687 46.2119 139.374H47.1152C47.1315 139.677 47.252 139.918 47.4766 140.097C47.7044 140.272 48.0039 140.36 48.375 140.36C48.7168 140.36 48.9902 140.292 49.1953 140.155C49.4036 140.015 49.5078 139.83 49.5078 139.599Z" fill="black"/>
<path d="M52.5693 141H51.666V135.717H52.5693V141ZM51.5928 134.315C51.5928 134.169 51.6367 134.045 51.7246 133.944C51.8158 133.843 51.9492 133.793 52.125 133.793C52.3008 133.793 52.4342 133.843 52.5254 133.944C52.6165 134.045 52.6621 134.169 52.6621 134.315C52.6621 134.462 52.6165 134.584 52.5254 134.682C52.4342 134.779 52.3008 134.828 52.125 134.828C51.9492 134.828 51.8158 134.779 51.7246 134.682C51.6367 134.584 51.5928 134.462 51.5928 134.315Z" fill="black"/>
<path d="M54.874 135.717L54.9033 136.381C55.307 135.873 55.8343 135.619 56.4854 135.619C57.6019 135.619 58.165 136.249 58.1748 137.509V141H57.2715V137.504C57.2682 137.123 57.1803 136.841 57.0078 136.659C56.8385 136.477 56.5732 136.386 56.2119 136.386C55.9189 136.386 55.6618 136.464 55.4404 136.62C55.2191 136.776 55.0465 136.981 54.9229 137.235V141H54.0195V135.717H54.874Z" fill="black"/>
<path d="M61.7295 141.098C61.0133 141.098 60.4307 140.863 59.9814 140.395C59.5322 139.923 59.3076 139.293 59.3076 138.505V138.339C59.3076 137.815 59.4069 137.348 59.6055 136.938C59.8073 136.524 60.0872 136.202 60.4453 135.971C60.8066 135.736 61.1973 135.619 61.6172 135.619C62.304 135.619 62.8379 135.845 63.2188 136.298C63.5996 136.75 63.79 137.398 63.79 138.241V138.617H60.2109C60.224 139.138 60.3753 139.56 60.665 139.882C60.958 140.201 61.3291 140.36 61.7783 140.36C62.0973 140.36 62.3675 140.295 62.5889 140.165C62.8102 140.035 63.0039 139.862 63.1699 139.647L63.7217 140.077C63.279 140.757 62.6149 141.098 61.7295 141.098ZM61.6172 136.361C61.2526 136.361 60.9466 136.495 60.6992 136.762C60.4518 137.025 60.2988 137.396 60.2402 137.875H62.8867V137.807C62.8607 137.348 62.737 136.993 62.5156 136.742C62.2943 136.488 61.9948 136.361 61.6172 136.361Z" fill="black"/>
<path d="M67.916 139.599C67.916 139.354 67.8232 139.166 67.6377 139.032C67.4554 138.896 67.1348 138.778 66.6758 138.681C66.2201 138.583 65.8571 138.466 65.5869 138.329C65.32 138.192 65.1214 138.03 64.9912 137.841C64.8643 137.652 64.8008 137.427 64.8008 137.167C64.8008 136.734 64.9831 136.368 65.3477 136.068C65.7155 135.769 66.1842 135.619 66.7539 135.619C67.3529 135.619 67.8379 135.774 68.209 136.083C68.5833 136.392 68.7705 136.788 68.7705 137.27H67.8623C67.8623 137.022 67.7565 136.809 67.5449 136.63C67.3366 136.451 67.0729 136.361 66.7539 136.361C66.4251 136.361 66.168 136.433 65.9824 136.576C65.7969 136.719 65.7041 136.907 65.7041 137.138C65.7041 137.356 65.7904 137.52 65.9629 137.631C66.1354 137.742 66.4463 137.847 66.8955 137.948C67.348 138.049 67.7142 138.17 67.9941 138.31C68.2741 138.45 68.4808 138.619 68.6143 138.817C68.751 139.013 68.8193 139.252 68.8193 139.535C68.8193 140.007 68.6305 140.386 68.2529 140.673C67.8753 140.956 67.3854 141.098 66.7832 141.098C66.36 141.098 65.9857 141.023 65.6602 140.873C65.3346 140.723 65.0791 140.515 64.8936 140.248C64.7113 139.978 64.6201 139.687 64.6201 139.374H65.5234C65.5397 139.677 65.6602 139.918 65.8848 140.097C66.1126 140.272 66.4121 140.36 66.7832 140.36C67.125 140.36 67.3984 140.292 67.6035 140.155C67.8118 140.015 67.916 139.83 67.916 139.599Z" fill="black"/>
<path d="M73.0723 139.599C73.0723 139.354 72.9795 139.166 72.7939 139.032C72.6117 138.896 72.291 138.778 71.832 138.681C71.3763 138.583 71.0133 138.466 70.7432 138.329C70.4762 138.192 70.2777 138.03 70.1475 137.841C70.0205 137.652 69.957 137.427 69.957 137.167C69.957 136.734 70.1393 136.368 70.5039 136.068C70.8717 135.769 71.3405 135.619 71.9102 135.619C72.5091 135.619 72.9941 135.774 73.3652 136.083C73.7396 136.392 73.9268 136.788 73.9268 137.27H73.0186C73.0186 137.022 72.9128 136.809 72.7012 136.63C72.4928 136.451 72.2292 136.361 71.9102 136.361C71.5814 136.361 71.3242 136.433 71.1387 136.576C70.9531 136.719 70.8604 136.907 70.8604 137.138C70.8604 137.356 70.9466 137.52 71.1191 137.631C71.2917 137.742 71.6025 137.847 72.0518 137.948C72.5042 138.049 72.8704 138.17 73.1504 138.31C73.4303 138.45 73.637 138.619 73.7705 138.817C73.9072 139.013 73.9756 139.252 73.9756 139.535C73.9756 140.007 73.7868 140.386 73.4092 140.673C73.0316 140.956 72.5417 141.098 71.9395 141.098C71.5163 141.098 71.1419 141.023 70.8164 140.873C70.4909 140.723 70.2354 140.515 70.0498 140.248C69.8675 139.978 69.7764 139.687 69.7764 139.374H70.6797C70.696 139.677 70.8164 139.918 71.041 140.097C71.2689 140.272 71.5684 140.36 71.9395 140.36C72.2812 140.36 72.5547 140.292 72.7598 140.155C72.9681 140.015 73.0723 139.83 73.0723 139.599Z" fill="black"/>
<path d="M78.7119 138.217V141H77.7744V133.891H80.3965C81.1745 133.891 81.7832 134.089 82.2227 134.486C82.6654 134.883 82.8867 135.409 82.8867 136.063C82.8867 136.754 82.6702 137.286 82.2373 137.66C81.8076 138.031 81.1908 138.217 80.3867 138.217H78.7119ZM78.7119 137.45H80.3965C80.8978 137.45 81.2819 137.333 81.5488 137.099C81.8158 136.861 81.9492 136.519 81.9492 136.073C81.9492 135.65 81.8158 135.312 81.5488 135.058C81.2819 134.804 80.9157 134.672 80.4502 134.662H78.7119V137.45Z" fill="black"/>
<path d="M84.9229 141H84.0195V133.5H84.9229V141Z" fill="black"/>
<path d="M89.6348 141C89.5827 140.896 89.5404 140.71 89.5078 140.443C89.0879 140.88 88.5866 141.098 88.0039 141.098C87.4831 141.098 87.055 140.951 86.7197 140.658C86.3877 140.362 86.2217 139.988 86.2217 139.535C86.2217 138.985 86.43 138.559 86.8467 138.256C87.2666 137.95 87.8558 137.797 88.6143 137.797H89.4932V137.382C89.4932 137.066 89.3988 136.815 89.21 136.63C89.0212 136.441 88.7428 136.347 88.375 136.347C88.0527 136.347 87.7826 136.428 87.5645 136.591C87.3464 136.754 87.2373 136.951 87.2373 137.182H86.3291C86.3291 136.918 86.4219 136.664 86.6074 136.42C86.7962 136.173 87.0501 135.977 87.3691 135.834C87.6914 135.691 88.0446 135.619 88.4287 135.619C89.0374 135.619 89.5143 135.772 89.8594 136.078C90.2044 136.381 90.3835 136.799 90.3965 137.333V139.765C90.3965 140.25 90.4583 140.635 90.582 140.922V141H89.6348ZM88.1357 140.312C88.4189 140.312 88.6875 140.238 88.9414 140.092C89.1953 139.945 89.3792 139.755 89.4932 139.521V138.437H88.7852C87.6784 138.437 87.125 138.76 87.125 139.408C87.125 139.691 87.2194 139.913 87.4082 140.072C87.597 140.232 87.8395 140.312 88.1357 140.312Z" fill="black"/>
<path d="M92.667 135.717L92.6963 136.381C93.0999 135.873 93.6273 135.619 94.2783 135.619C95.3949 135.619 95.958 136.249 95.9678 137.509V141H95.0645V137.504C95.0612 137.123 94.9733 136.841 94.8008 136.659C94.6315 136.477 94.3662 136.386 94.0049 136.386C93.7119 136.386 93.4548 136.464 93.2334 136.62C93.012 136.776 92.8395 136.981 92.7158 137.235V141H91.8125V135.717H92.667Z" fill="black"/>
<path d="M100.406 139.599C100.406 139.354 100.313 139.166 100.128 139.032C99.9456 138.896 99.625 138.778 99.166 138.681C98.7103 138.583 98.3473 138.466 98.0771 138.329C97.8102 138.192 97.6117 138.03 97.4814 137.841C97.3545 137.652 97.291 137.427 97.291 137.167C97.291 136.734 97.4733 136.368 97.8379 136.068C98.2057 135.769 98.6745 135.619 99.2441 135.619C99.8431 135.619 100.328 135.774 100.699 136.083C101.074 136.392 101.261 136.788 101.261 137.27H100.353C100.353 137.022 100.247 136.809 100.035 136.63C99.8268 136.451 99.5632 136.361 99.2441 136.361C98.9154 136.361 98.6582 136.433 98.4727 136.576C98.2871 136.719 98.1943 136.907 98.1943 137.138C98.1943 137.356 98.2806 137.52 98.4531 137.631C98.6257 137.742 98.9365 137.847 99.3857 137.948C99.8382 138.049 100.204 138.17 100.484 138.31C100.764 138.45 100.971 138.619 101.104 138.817C101.241 139.013 101.31 139.252 101.31 139.535C101.31 140.007 101.121 140.386 100.743 140.673C100.366 140.956 99.8757 141.098 99.2734 141.098C98.8503 141.098 98.4759 141.023 98.1504 140.873C97.8249 140.723 97.5693 140.515 97.3838 140.248C97.2015 139.978 97.1104 139.687 97.1104 139.374H98.0137C98.0299 139.677 98.1504 139.918 98.375 140.097C98.6029 140.272 98.9023 140.36 99.2734 140.36C99.6152 140.36 99.8887 140.292 100.094 140.155C100.302 140.015 100.406 139.83 100.406 139.599Z" fill="black"/>
<path d="M40.0547 150.744C39.9668 151.496 39.6885 152.077 39.2197 152.487C38.7542 152.894 38.1341 153.098 37.3594 153.098C36.5195 153.098 35.8457 152.797 35.3379 152.194C34.8333 151.592 34.5811 150.786 34.5811 149.777V149.094C34.5811 148.433 34.6982 147.852 34.9326 147.351C35.1702 146.849 35.5055 146.465 35.9385 146.198C36.3714 145.928 36.8727 145.793 37.4424 145.793C38.1976 145.793 38.8031 146.005 39.2588 146.428C39.7145 146.848 39.9798 147.43 40.0547 148.176H39.1123C39.0309 147.609 38.8535 147.199 38.5801 146.945C38.3099 146.691 37.9307 146.564 37.4424 146.564C36.8434 146.564 36.373 146.786 36.0312 147.229C35.6927 147.671 35.5234 148.301 35.5234 149.118V149.807C35.5234 150.578 35.6846 151.192 36.0068 151.647C36.3291 152.103 36.7799 152.331 37.3594 152.331C37.8802 152.331 38.279 152.214 38.5557 151.979C38.8356 151.742 39.0212 151.33 39.1123 150.744H40.0547Z" fill="black"/>
<path d="M43.6924 151.755L45.7236 145.891H46.749L44.1123 153H43.2822L40.6504 145.891H41.6709L43.6924 151.755Z" fill="black"/>
<path d="M50.6406 151.599C50.6406 151.354 50.5479 151.166 50.3623 151.032C50.18 150.896 49.8594 150.778 49.4004 150.681C48.9447 150.583 48.5817 150.466 48.3115 150.329C48.0446 150.192 47.846 150.03 47.7158 149.841C47.5889 149.652 47.5254 149.427 47.5254 149.167C47.5254 148.734 47.7077 148.368 48.0723 148.068C48.4401 147.769 48.9089 147.619 49.4785 147.619C50.0775 147.619 50.5625 147.774 50.9336 148.083C51.3079 148.392 51.4951 148.788 51.4951 149.27H50.5869C50.5869 149.022 50.4811 148.809 50.2695 148.63C50.0612 148.451 49.7975 148.361 49.4785 148.361C49.1497 148.361 48.8926 148.433 48.707 148.576C48.5215 148.719 48.4287 148.907 48.4287 149.138C48.4287 149.356 48.515 149.52 48.6875 149.631C48.86 149.742 49.1709 149.847 49.6201 149.948C50.0726 150.049 50.4388 150.17 50.7188 150.31C50.9987 150.45 51.2054 150.619 51.3389 150.817C51.4756 151.013 51.5439 151.252 51.5439 151.535C51.5439 152.007 51.3551 152.386 50.9775 152.673C50.5999 152.956 50.11 153.098 49.5078 153.098C49.0846 153.098 48.7103 153.023 48.3848 152.873C48.0592 152.723 47.8037 152.515 47.6182 152.248C47.4359 151.978 47.3447 151.687 47.3447 151.374H48.248C48.2643 151.677 48.3848 151.918 48.6094 152.097C48.8372 152.272 49.1367 152.36 49.5078 152.36C49.8496 152.36 50.123 152.292 50.3281 152.155C50.5365 152.015 50.6406 151.83 50.6406 151.599Z" fill="black"/>
<path d="M36.9199 161.831C36.1159 161.6 35.5299 161.317 35.1621 160.981C34.7975 160.643 34.6152 160.226 34.6152 159.731C34.6152 159.172 34.8382 158.709 35.2842 158.345C35.7334 157.977 36.3161 157.793 37.0322 157.793C37.5205 157.793 37.9551 157.887 38.3359 158.076C38.7201 158.265 39.0163 158.525 39.2246 158.857C39.4362 159.189 39.542 159.552 39.542 159.946H38.5996C38.5996 159.517 38.4629 159.18 38.1895 158.936C37.916 158.688 37.5303 158.564 37.0322 158.564C36.57 158.564 36.2087 158.667 35.9482 158.872C35.6911 159.074 35.5625 159.355 35.5625 159.717C35.5625 160.007 35.6846 160.252 35.9287 160.454C36.1761 160.653 36.5944 160.835 37.1836 161.001C37.776 161.167 38.2383 161.351 38.5703 161.553C38.9056 161.751 39.153 161.984 39.3125 162.251C39.4753 162.518 39.5566 162.832 39.5566 163.193C39.5566 163.77 39.332 164.232 38.8828 164.58C38.4336 164.925 37.833 165.098 37.0811 165.098C36.5928 165.098 36.137 165.005 35.7139 164.819C35.2907 164.631 34.9635 164.373 34.7324 164.048C34.5046 163.722 34.3906 163.353 34.3906 162.939H35.333C35.333 163.369 35.4909 163.709 35.8066 163.96C36.1257 164.207 36.5505 164.331 37.0811 164.331C37.5758 164.331 37.9551 164.23 38.2188 164.028C38.4824 163.826 38.6143 163.551 38.6143 163.203C38.6143 162.855 38.4922 162.586 38.248 162.397C38.0039 162.205 37.5612 162.017 36.9199 161.831Z" fill="black"/>
<path d="M42.2959 162.759L42.4326 163.696L42.6328 162.852L44.0391 157.891H44.8301L46.2021 162.852L46.3975 163.711L46.5488 162.754L47.6523 157.891H48.5947L46.8711 165H46.0166L44.5518 159.819L44.4395 159.277L44.3271 159.819L42.8086 165H41.9541L40.2354 157.891H41.1729L42.2959 162.759Z" fill="black"/>
<path d="M55.1084 161.675C55.1084 162.371 54.9912 162.98 54.7568 163.501C54.5225 164.019 54.1904 164.414 53.7607 164.688C53.3311 164.961 52.8298 165.098 52.2568 165.098C51.6969 165.098 51.2005 164.961 50.7676 164.688C50.3346 164.411 49.9977 164.019 49.7568 163.511C49.5192 163 49.3971 162.409 49.3906 161.738V161.226C49.3906 160.542 49.5094 159.938 49.7471 159.414C49.9847 158.89 50.32 158.49 50.7529 158.213C51.1891 157.933 51.6872 157.793 52.2471 157.793C52.8167 157.793 53.318 157.931 53.751 158.208C54.1872 158.481 54.5225 158.88 54.7568 159.404C54.9912 159.925 55.1084 160.532 55.1084 161.226V161.675ZM54.1758 161.216C54.1758 160.373 54.0065 159.727 53.668 159.277C53.3294 158.825 52.8558 158.599 52.2471 158.599C51.6546 158.599 51.1875 158.825 50.8457 159.277C50.5072 159.727 50.333 160.352 50.3232 161.152V161.675C50.3232 162.492 50.4941 163.135 50.8359 163.604C51.181 164.069 51.6546 164.302 52.2568 164.302C52.8623 164.302 53.3311 164.082 53.6631 163.643C53.9951 163.2 54.166 162.567 54.1758 161.743V161.216Z" fill="black"/>
<path d="M61.29 158.662H59.0049V165H58.0723V158.662H55.792V157.891H61.29V158.662Z" fill="black"/>
<path d="M68.5557 163.145H65.5771L64.9082 165H63.9414L66.6562 157.891H67.4766L70.1963 165H69.2344L68.5557 163.145ZM65.8604 162.373H68.2773L67.0664 159.048L65.8604 162.373Z" fill="black"/>
<path d="M71.8662 159.717L71.8955 160.381C72.2992 159.873 72.8265 159.619 73.4775 159.619C74.5941 159.619 75.1572 160.249 75.167 161.509V165H74.2637V161.504C74.2604 161.123 74.1725 160.841 74 160.659C73.8307 160.477 73.5654 160.386 73.2041 160.386C72.9111 160.386 72.654 160.464 72.4326 160.62C72.2113 160.776 72.0387 160.981 71.915 161.235V165H71.0117V159.717H71.8662Z" fill="black"/>
<path d="M79.791 165C79.7389 164.896 79.6966 164.71 79.6641 164.443C79.2441 164.88 78.7428 165.098 78.1602 165.098C77.6393 165.098 77.2113 164.951 76.876 164.658C76.5439 164.362 76.3779 163.988 76.3779 163.535C76.3779 162.985 76.5863 162.559 77.0029 162.256C77.4229 161.95 78.012 161.797 78.7705 161.797H79.6494V161.382C79.6494 161.066 79.555 160.815 79.3662 160.63C79.1774 160.441 78.8991 160.347 78.5312 160.347C78.209 160.347 77.9388 160.428 77.7207 160.591C77.5026 160.754 77.3936 160.951 77.3936 161.182H76.4854C76.4854 160.918 76.5781 160.664 76.7637 160.42C76.9525 160.173 77.2064 159.977 77.5254 159.834C77.8477 159.691 78.2008 159.619 78.585 159.619C79.1937 159.619 79.6706 159.772 80.0156 160.078C80.3607 160.381 80.5397 160.799 80.5527 161.333V163.765C80.5527 164.25 80.6146 164.635 80.7383 164.922V165H79.791ZM78.292 164.312C78.5752 164.312 78.8438 164.238 79.0977 164.092C79.3516 163.945 79.5355 163.755 79.6494 163.521V162.437H78.9414C77.8346 162.437 77.2812 162.76 77.2812 163.408C77.2812 163.691 77.3757 163.913 77.5645 164.072C77.7533 164.232 77.9958 164.312 78.292 164.312Z" fill="black"/>
<path d="M82.9502 165H82.0469V157.5H82.9502V165Z" fill="black"/>
<path d="M86.1289 163.677L87.3594 159.717H88.3262L86.2021 165.815C85.8734 166.694 85.3509 167.134 84.6348 167.134L84.4639 167.119L84.127 167.056V166.323L84.3711 166.343C84.6771 166.343 84.9147 166.281 85.084 166.157C85.2565 166.034 85.3981 165.807 85.5088 165.479L85.709 164.941L83.8242 159.717H84.8105L86.1289 163.677Z" fill="black"/>
<path d="M92.2129 163.599C92.2129 163.354 92.1201 163.166 91.9346 163.032C91.7523 162.896 91.4316 162.778 90.9727 162.681C90.5169 162.583 90.154 162.466 89.8838 162.329C89.6169 162.192 89.4183 162.03 89.2881 161.841C89.1611 161.652 89.0977 161.427 89.0977 161.167C89.0977 160.734 89.2799 160.368 89.6445 160.068C90.0124 159.769 90.4811 159.619 91.0508 159.619C91.6497 159.619 92.1348 159.774 92.5059 160.083C92.8802 160.392 93.0674 160.788 93.0674 161.27H92.1592C92.1592 161.022 92.0534 160.809 91.8418 160.63C91.6335 160.451 91.3698 160.361 91.0508 160.361C90.722 160.361 90.4648 160.433 90.2793 160.576C90.0938 160.719 90.001 160.907 90.001 161.138C90.001 161.356 90.0872 161.52 90.2598 161.631C90.4323 161.742 90.7432 161.847 91.1924 161.948C91.6449 162.049 92.0111 162.17 92.291 162.31C92.571 162.45 92.7777 162.619 92.9111 162.817C93.0479 163.013 93.1162 163.252 93.1162 163.535C93.1162 164.007 92.9274 164.386 92.5498 164.673C92.1722 164.956 91.6823 165.098 91.0801 165.098C90.6569 165.098 90.2826 165.023 89.957 164.873C89.6315 164.723 89.376 164.515 89.1904 164.248C89.0081 163.978 88.917 163.687 88.917 163.374H89.8203C89.8366 163.677 89.957 163.918 90.1816 164.097C90.4095 164.272 90.709 164.36 91.0801 164.36C91.4219 164.36 91.6953 164.292 91.9004 164.155C92.1087 164.015 92.2129 163.83 92.2129 163.599Z" fill="black"/>
<path d="M96.4854 165.098C95.7692 165.098 95.1865 164.863 94.7373 164.395C94.2881 163.923 94.0635 163.293 94.0635 162.505V162.339C94.0635 161.815 94.1628 161.348 94.3613 160.938C94.5632 160.524 94.8431 160.202 95.2012 159.971C95.5625 159.736 95.9531 159.619 96.373 159.619C97.0599 159.619 97.5938 159.845 97.9746 160.298C98.3555 160.75 98.5459 161.398 98.5459 162.241V162.617H94.9668C94.9798 163.138 95.1312 163.56 95.4209 163.882C95.7139 164.201 96.085 164.36 96.5342 164.36C96.8532 164.36 97.1234 164.295 97.3447 164.165C97.5661 164.035 97.7598 163.862 97.9258 163.647L98.4775 164.077C98.0348 164.757 97.3708 165.098 96.4854 165.098ZM96.373 160.361C96.0085 160.361 95.7025 160.495 95.4551 160.762C95.2077 161.025 95.0547 161.396 94.9961 161.875H97.6426V161.807C97.6165 161.348 97.4928 160.993 97.2715 160.742C97.0501 160.488 96.7507 160.361 96.373 160.361Z" fill="black"/>
<path d="M102.672 163.599C102.672 163.354 102.579 163.166 102.394 163.032C102.211 162.896 101.891 162.778 101.432 162.681C100.976 162.583 100.613 162.466 100.343 162.329C100.076 162.192 99.8773 162.03 99.7471 161.841C99.6201 161.652 99.5566 161.427 99.5566 161.167C99.5566 160.734 99.7389 160.368 100.104 160.068C100.471 159.769 100.94 159.619 101.51 159.619C102.109 159.619 102.594 159.774 102.965 160.083C103.339 160.392 103.526 160.788 103.526 161.27H102.618C102.618 161.022 102.512 160.809 102.301 160.63C102.092 160.451 101.829 160.361 101.51 160.361C101.181 160.361 100.924 160.433 100.738 160.576C100.553 160.719 100.46 160.907 100.46 161.138C100.46 161.356 100.546 161.52 100.719 161.631C100.891 161.742 101.202 161.847 101.651 161.948C102.104 162.049 102.47 162.17 102.75 162.31C103.03 162.45 103.237 162.619 103.37 162.817C103.507 163.013 103.575 163.252 103.575 163.535C103.575 164.007 103.386 164.386 103.009 164.673C102.631 164.956 102.141 165.098 101.539 165.098C101.116 165.098 100.742 165.023 100.416 164.873C100.09 164.723 99.835 164.515 99.6494 164.248C99.4671 163.978 99.376 163.687 99.376 163.374H100.279C100.296 163.677 100.416 163.918 100.641 164.097C100.868 164.272 101.168 164.36 101.539 164.36C101.881 164.36 102.154 164.292 102.359 164.155C102.568 164.015 102.672 163.83 102.672 163.599Z" fill="black"/>
<path d="M40.0547 174.744C39.9668 175.496 39.6885 176.077 39.2197 176.487C38.7542 176.894 38.1341 177.098 37.3594 177.098C36.5195 177.098 35.8457 176.797 35.3379 176.194C34.8333 175.592 34.5811 174.786 34.5811 173.777V173.094C34.5811 172.433 34.6982 171.852 34.9326 171.351C35.1702 170.849 35.5055 170.465 35.9385 170.198C36.3714 169.928 36.8727 169.793 37.4424 169.793C38.1976 169.793 38.8031 170.005 39.2588 170.428C39.7145 170.848 39.9798 171.43 40.0547 172.176H39.1123C39.0309 171.609 38.8535 171.199 38.5801 170.945C38.3099 170.691 37.9307 170.564 37.4424 170.564C36.8434 170.564 36.373 170.786 36.0312 171.229C35.6927 171.671 35.5234 172.301 35.5234 173.118V173.807C35.5234 174.578 35.6846 175.192 36.0068 175.647C36.3291 176.103 36.7799 176.331 37.3594 176.331C37.8802 176.331 38.279 176.214 38.5557 175.979C38.8356 175.742 39.0212 175.33 39.1123 174.744H40.0547Z" fill="black"/>
<path d="M40.958 174.31C40.958 173.792 41.0589 173.326 41.2607 172.913C41.4658 172.5 41.749 172.181 42.1104 171.956C42.4749 171.731 42.89 171.619 43.3555 171.619C44.0749 171.619 44.6559 171.868 45.0986 172.366C45.5446 172.864 45.7676 173.527 45.7676 174.354V174.417C45.7676 174.931 45.6683 175.394 45.4697 175.804C45.2744 176.211 44.9928 176.528 44.625 176.756C44.2604 176.984 43.8405 177.098 43.3652 177.098C42.6491 177.098 42.068 176.849 41.6221 176.351C41.1794 175.853 40.958 175.193 40.958 174.373V174.31ZM41.8662 174.417C41.8662 175.003 42.0013 175.473 42.2715 175.828C42.5449 176.183 42.9095 176.36 43.3652 176.36C43.8242 176.36 44.1888 176.181 44.459 175.823C44.7292 175.462 44.8643 174.957 44.8643 174.31C44.8643 173.73 44.7259 173.261 44.4492 172.903C44.1758 172.542 43.8112 172.361 43.3555 172.361C42.9095 172.361 42.5498 172.539 42.2764 172.894C42.0029 173.248 41.8662 173.756 41.8662 174.417Z" fill="black"/>
<path d="M48.5654 175.774L49.874 171.717H50.7969L48.9023 177H48.2139L46.2998 171.717H47.2227L48.5654 175.774Z" fill="black"/>
<path d="M53.79 177.098C53.0739 177.098 52.4912 176.863 52.042 176.395C51.5928 175.923 51.3682 175.293 51.3682 174.505V174.339C51.3682 173.815 51.4674 173.348 51.666 172.938C51.8678 172.524 52.1478 172.202 52.5059 171.971C52.8672 171.736 53.2578 171.619 53.6777 171.619C54.3646 171.619 54.8984 171.845 55.2793 172.298C55.6602 172.75 55.8506 173.398 55.8506 174.241V174.617H52.2715C52.2845 175.138 52.4359 175.56 52.7256 175.882C53.0186 176.201 53.3896 176.36 53.8389 176.36C54.1579 176.36 54.4281 176.295 54.6494 176.165C54.8708 176.035 55.0645 175.862 55.2305 175.647L55.7822 176.077C55.3395 176.757 54.6755 177.098 53.79 177.098ZM53.6777 172.361C53.3132 172.361 53.0072 172.495 52.7598 172.762C52.5124 173.025 52.3594 173.396 52.3008 173.875H54.9473V173.807C54.9212 173.348 54.7975 172.993 54.5762 172.742C54.3548 172.488 54.0553 172.361 53.6777 172.361Z" fill="black"/>
<path d="M59.4541 172.527C59.3174 172.505 59.1693 172.493 59.0098 172.493C58.4173 172.493 58.0153 172.745 57.8037 173.25V177H56.9004V171.717H57.7793L57.7939 172.327C58.0902 171.855 58.5101 171.619 59.0537 171.619C59.2295 171.619 59.363 171.642 59.4541 171.688V172.527Z" fill="black"/>
<path d="M63.8535 176.233H67.2227V177H62.9111V169.891H63.8535V176.233Z" fill="black"/>
<path d="M70.3428 177.098C69.6266 177.098 69.0439 176.863 68.5947 176.395C68.1455 175.923 67.9209 175.293 67.9209 174.505V174.339C67.9209 173.815 68.0202 173.348 68.2188 172.938C68.4206 172.524 68.7005 172.202 69.0586 171.971C69.4199 171.736 69.8105 171.619 70.2305 171.619C70.9173 171.619 71.4512 171.845 71.832 172.298C72.2129 172.75 72.4033 173.398 72.4033 174.241V174.617H68.8242C68.8372 175.138 68.9886 175.56 69.2783 175.882C69.5713 176.201 69.9424 176.36 70.3916 176.36C70.7106 176.36 70.9808 176.295 71.2021 176.165C71.4235 176.035 71.6172 175.862 71.7832 175.647L72.335 176.077C71.8923 176.757 71.2282 177.098 70.3428 177.098ZM70.2305 172.361C69.8659 172.361 69.5599 172.495 69.3125 172.762C69.0651 173.025 68.9121 173.396 68.8535 173.875H71.5V173.807C71.474 173.348 71.3503 172.993 71.1289 172.742C70.9076 172.488 70.6081 172.361 70.2305 172.361Z" fill="black"/>
<path d="M74.6787 170.438V171.717H75.665V172.415H74.6787V175.691C74.6787 175.903 74.7227 176.062 74.8105 176.17C74.8984 176.274 75.0482 176.326 75.2598 176.326C75.3639 176.326 75.5072 176.307 75.6895 176.268V177C75.4518 177.065 75.2207 177.098 74.9961 177.098C74.5924 177.098 74.2881 176.976 74.083 176.731C73.8779 176.487 73.7754 176.141 73.7754 175.691V172.415H72.8135V171.717H73.7754V170.438H74.6787Z" fill="black"/>
<path d="M77.9502 170.438V171.717H78.9365V172.415H77.9502V175.691C77.9502 175.903 77.9941 176.062 78.082 176.17C78.1699 176.274 78.3197 176.326 78.5312 176.326C78.6354 176.326 78.7786 176.307 78.9609 176.268V177C78.7233 177.065 78.4922 177.098 78.2676 177.098C77.8639 177.098 77.5596 176.976 77.3545 176.731C77.1494 176.487 77.0469 176.141 77.0469 175.691V172.415H76.085V171.717H77.0469V170.438H77.9502Z" fill="black"/>
<path d="M82.1885 177.098C81.4723 177.098 80.8896 176.863 80.4404 176.395C79.9912 175.923 79.7666 175.293 79.7666 174.505V174.339C79.7666 173.815 79.8659 173.348 80.0645 172.938C80.2663 172.524 80.5462 172.202 80.9043 171.971C81.2656 171.736 81.6562 171.619 82.0762 171.619C82.763 171.619 83.2969 171.845 83.6777 172.298C84.0586 172.75 84.249 173.398 84.249 174.241V174.617H80.6699C80.6829 175.138 80.8343 175.56 81.124 175.882C81.417 176.201 81.7881 176.36 82.2373 176.36C82.5563 176.36 82.8265 176.295 83.0479 176.165C83.2692 176.035 83.4629 175.862 83.6289 175.647L84.1807 176.077C83.738 176.757 83.0739 177.098 82.1885 177.098ZM82.0762 172.361C81.7116 172.361 81.4056 172.495 81.1582 172.762C80.9108 173.025 80.7578 173.396 80.6992 173.875H83.3457V173.807C83.3197 173.348 83.196 172.993 82.9746 172.742C82.7533 172.488 82.4538 172.361 82.0762 172.361Z" fill="black"/>
<path d="M87.8525 172.527C87.7158 172.505 87.5677 172.493 87.4082 172.493C86.8158 172.493 86.4137 172.745 86.2021 173.25V177H85.2988V171.717H86.1777L86.1924 172.327C86.4886 171.855 86.9085 171.619 87.4521 171.619C87.6279 171.619 87.7614 171.642 87.8525 171.688V172.527Z" fill="black"/>
<path d="M91.7637 175.599C91.7637 175.354 91.6709 175.166 91.4854 175.032C91.3031 174.896 90.9824 174.778 90.5234 174.681C90.0677 174.583 89.7048 174.466 89.4346 174.329C89.1676 174.192 88.9691 174.03 88.8389 173.841C88.7119 173.652 88.6484 173.427 88.6484 173.167C88.6484 172.734 88.8307 172.368 89.1953 172.068C89.5632 171.769 90.0319 171.619 90.6016 171.619C91.2005 171.619 91.6855 171.774 92.0566 172.083C92.431 172.392 92.6182 172.788 92.6182 173.27H91.71C91.71 173.022 91.6042 172.809 91.3926 172.63C91.1842 172.451 90.9206 172.361 90.6016 172.361C90.2728 172.361 90.0156 172.433 89.8301 172.576C89.6445 172.719 89.5518 172.907 89.5518 173.138C89.5518 173.356 89.638 173.52 89.8105 173.631C89.9831 173.742 90.2939 173.847 90.7432 173.948C91.1956 174.049 91.5618 174.17 91.8418 174.31C92.1217 174.45 92.3285 174.619 92.4619 174.817C92.5986 175.013 92.667 175.252 92.667 175.535C92.667 176.007 92.4782 176.386 92.1006 176.673C91.723 176.956 91.2331 177.098 90.6309 177.098C90.2077 177.098 89.8333 177.023 89.5078 176.873C89.1823 176.723 88.9268 176.515 88.7412 176.248C88.5589 175.978 88.4678 175.687 88.4678 175.374H89.3711C89.3874 175.677 89.5078 175.918 89.7324 176.097C89.9603 176.272 90.2598 176.36 90.6309 176.36C90.9727 176.36 91.2461 176.292 91.4512 176.155C91.6595 176.015 91.7637 175.83 91.7637 175.599Z" fill="black"/>
<path d="M34.8252 189V181.891H37.1494C37.9209 181.891 38.5003 182.05 38.8877 182.369C39.2783 182.688 39.4736 183.16 39.4736 183.785C39.4736 184.117 39.3792 184.412 39.1904 184.669C39.0016 184.923 38.7445 185.12 38.4189 185.26C38.8031 185.367 39.1058 185.572 39.3271 185.875C39.5518 186.174 39.6641 186.533 39.6641 186.949C39.6641 187.587 39.4574 188.089 39.0439 188.453C38.6305 188.818 38.0462 189 37.291 189H34.8252ZM35.7627 185.675V188.233H37.3105C37.7467 188.233 38.0902 188.121 38.3408 187.896C38.5947 187.669 38.7217 187.356 38.7217 186.959C38.7217 186.103 38.2562 185.675 37.3252 185.675H35.7627ZM35.7627 184.923H37.1787C37.5889 184.923 37.916 184.82 38.1602 184.615C38.4076 184.41 38.5312 184.132 38.5312 183.78C38.5312 183.39 38.4173 183.106 38.1895 182.931C37.9616 182.752 37.6149 182.662 37.1494 182.662H35.7627V184.923Z" fill="black"/>
<path d="M43.4678 184.527C43.3311 184.505 43.1829 184.493 43.0234 184.493C42.431 184.493 42.029 184.745 41.8174 185.25V189H40.9141V183.717H41.793L41.8076 184.327C42.1038 183.855 42.5238 183.619 43.0674 183.619C43.2432 183.619 43.3766 183.642 43.4678 183.688V184.527Z" fill="black"/>
<path d="M43.9658 186.31C43.9658 185.792 44.0667 185.326 44.2686 184.913C44.4736 184.5 44.7568 184.181 45.1182 183.956C45.4827 183.731 45.8978 183.619 46.3633 183.619C47.0827 183.619 47.6637 183.868 48.1064 184.366C48.5524 184.864 48.7754 185.527 48.7754 186.354V186.417C48.7754 186.931 48.6761 187.394 48.4775 187.804C48.2822 188.211 48.0007 188.528 47.6328 188.756C47.2682 188.984 46.8483 189.098 46.373 189.098C45.6569 189.098 45.0758 188.849 44.6299 188.351C44.1872 187.853 43.9658 187.193 43.9658 186.373V186.31ZM44.874 186.417C44.874 187.003 45.0091 187.473 45.2793 187.828C45.5527 188.183 45.9173 188.36 46.373 188.36C46.832 188.36 47.1966 188.181 47.4668 187.823C47.737 187.462 47.8721 186.957 47.8721 186.31C47.8721 185.73 47.7337 185.261 47.457 184.903C47.1836 184.542 46.819 184.361 46.3633 184.361C45.9173 184.361 45.5576 184.539 45.2842 184.894C45.0107 185.248 44.874 185.756 44.874 186.417Z" fill="black"/>
<path d="M52.0273 188.36C52.3496 188.36 52.6312 188.263 52.8721 188.067C53.113 187.872 53.2464 187.628 53.2725 187.335H54.127C54.1107 187.638 54.0065 187.926 53.8145 188.199C53.6224 188.473 53.3652 188.691 53.043 188.854C52.724 189.016 52.3854 189.098 52.0273 189.098C51.3079 189.098 50.735 188.858 50.3086 188.38C49.8854 187.898 49.6738 187.241 49.6738 186.407V186.256C49.6738 185.742 49.7682 185.284 49.957 184.884C50.1458 184.483 50.416 184.173 50.7676 183.951C51.1224 183.73 51.5407 183.619 52.0225 183.619C52.6149 183.619 53.1064 183.797 53.4971 184.151C53.891 184.506 54.1009 184.967 54.127 185.533H53.2725C53.2464 185.191 53.1162 184.911 52.8818 184.693C52.6507 184.472 52.3643 184.361 52.0225 184.361C51.5635 184.361 51.207 184.527 50.9531 184.859C50.7025 185.188 50.5771 185.665 50.5771 186.29V186.461C50.5771 187.07 50.7025 187.538 50.9531 187.867C51.2038 188.196 51.5618 188.36 52.0273 188.36Z" fill="black"/>
<path d="M56.0459 184.356C56.4463 183.865 56.9671 183.619 57.6084 183.619C58.7249 183.619 59.2881 184.249 59.2979 185.509V189H58.3945V185.504C58.3913 185.123 58.3034 184.841 58.1309 184.659C57.9616 184.477 57.6963 184.386 57.335 184.386C57.042 184.386 56.7848 184.464 56.5635 184.62C56.3421 184.776 56.1696 184.981 56.0459 185.235V189H55.1426V181.5H56.0459V184.356Z" fill="black"/>
<path d="M63.9121 188.478C63.5605 188.891 63.0446 189.098 62.3643 189.098C61.8011 189.098 61.3714 188.935 61.0752 188.609C60.7822 188.281 60.6341 187.796 60.6309 187.154V183.717H61.5342V187.13C61.5342 187.931 61.8597 188.331 62.5107 188.331C63.2008 188.331 63.6598 188.074 63.8877 187.56V183.717H64.791V189H63.9316L63.9121 188.478Z" fill="black"/>
<path d="M68.7217 184.527C68.585 184.505 68.4368 184.493 68.2773 184.493C67.6849 184.493 67.2829 184.745 67.0713 185.25V189H66.168V183.717H67.0469L67.0615 184.327C67.3577 183.855 67.7777 183.619 68.3213 183.619C68.4971 183.619 68.6305 183.642 68.7217 183.688V184.527Z" fill="black"/>
<path d="M71.6514 189.098C70.9352 189.098 70.3525 188.863 69.9033 188.395C69.4541 187.923 69.2295 187.293 69.2295 186.505V186.339C69.2295 185.815 69.3288 185.348 69.5273 184.938C69.7292 184.524 70.0091 184.202 70.3672 183.971C70.7285 183.736 71.1191 183.619 71.5391 183.619C72.2259 183.619 72.7598 183.845 73.1406 184.298C73.5215 184.75 73.7119 185.398 73.7119 186.241V186.617H70.1328C70.1458 187.138 70.2972 187.56 70.5869 187.882C70.8799 188.201 71.251 188.36 71.7002 188.36C72.0192 188.36 72.2894 188.295 72.5107 188.165C72.7321 188.035 72.9258 187.862 73.0918 187.647L73.6436 188.077C73.2008 188.757 72.5368 189.098 71.6514 189.098ZM71.5391 184.361C71.1745 184.361 70.8685 184.495 70.6211 184.762C70.3737 185.025 70.2207 185.396 70.1621 185.875H72.8086V185.807C72.7826 185.348 72.6589 184.993 72.4375 184.742C72.2161 184.488 71.9167 184.361 71.5391 184.361Z" fill="black"/>
<path d="M77.8379 187.599C77.8379 187.354 77.7451 187.166 77.5596 187.032C77.3773 186.896 77.0566 186.778 76.5977 186.681C76.1419 186.583 75.779 186.466 75.5088 186.329C75.2419 186.192 75.0433 186.03 74.9131 185.841C74.7861 185.652 74.7227 185.427 74.7227 185.167C74.7227 184.734 74.9049 184.368 75.2695 184.068C75.6374 183.769 76.1061 183.619 76.6758 183.619C77.2747 183.619 77.7598 183.774 78.1309 184.083C78.5052 184.392 78.6924 184.788 78.6924 185.27H77.7842C77.7842 185.022 77.6784 184.809 77.4668 184.63C77.2585 184.451 76.9948 184.361 76.6758 184.361C76.347 184.361 76.0898 184.433 75.9043 184.576C75.7188 184.719 75.626 184.907 75.626 185.138C75.626 185.356 75.7122 185.52 75.8848 185.631C76.0573 185.742 76.3682 185.847 76.8174 185.948C77.2699 186.049 77.6361 186.17 77.916 186.31C78.196 186.45 78.4027 186.619 78.5361 186.817C78.6729 187.013 78.7412 187.252 78.7412 187.535C78.7412 188.007 78.5524 188.386 78.1748 188.673C77.7972 188.956 77.3073 189.098 76.7051 189.098C76.2819 189.098 75.9076 189.023 75.582 188.873C75.2565 188.723 75.001 188.515 74.8154 188.248C74.6331 187.978 74.542 187.687 74.542 187.374H75.4453C75.4616 187.677 75.582 187.918 75.8066 188.097C76.0345 188.272 76.334 188.36 76.7051 188.36C77.0469 188.36 77.3203 188.292 77.5254 188.155C77.7337 188.015 77.8379 187.83 77.8379 187.599Z" fill="black"/>
<path d="M34.4399 116.794C34.3124 116.794 34.204 116.753 34.1148 116.67C34.0383 116.574 34 116.457 34 116.32V102.865C34 102.714 34.0383 102.598 34.1148 102.515C34.204 102.419 34.3124 102.371 34.4399 102.371H39.6804C41.0447 102.371 42.0711 102.721 42.7596 103.422C43.4481 104.122 43.7924 105.043 43.7924 106.183C43.7924 106.952 43.6266 107.591 43.2951 108.099C42.9764 108.607 42.5938 108.978 42.1476 109.212C42.6831 109.5 43.1357 109.946 43.5055 110.551C43.8753 111.155 44.0602 111.849 44.0602 112.632C44.0602 113.401 43.8944 114.102 43.5629 114.734C43.2441 115.365 42.766 115.867 42.1285 116.238C41.4909 116.609 40.7259 116.794 39.8334 116.794H34.4399ZM39.3935 108.47C40.1968 108.47 40.8088 108.271 41.2295 107.872C41.6631 107.474 41.8798 106.918 41.8798 106.203C41.8798 105.503 41.6694 104.967 41.2487 104.596C40.8279 104.225 40.2095 104.04 39.3935 104.04H35.8743V108.47H39.3935ZM39.5847 115.125C40.388 115.125 41.0128 114.891 41.4591 114.424C41.9181 113.957 42.1476 113.36 42.1476 112.632C42.1476 111.876 41.9181 111.272 41.4591 110.819C41.0128 110.352 40.388 110.118 39.5847 110.118H35.8743V115.125H39.5847Z" fill="#4E4E4E"/>
<path d="M50.2372 117C49.0259 117 48.0887 116.581 47.4257 115.743C46.7627 114.891 46.4312 113.765 46.4312 112.364V106.554C46.4312 106.416 46.4694 106.306 46.5459 106.224C46.6352 106.128 46.7435 106.08 46.8711 106.08H47.8273C47.9548 106.08 48.0569 106.128 48.1334 106.224C48.2226 106.306 48.2672 106.416 48.2672 106.554V112.261C48.2672 114.308 49.096 115.331 50.7536 115.331C51.5569 115.331 52.1944 115.063 52.6662 114.527C53.1379 113.978 53.3738 113.223 53.3738 112.261V106.554C53.3738 106.416 53.4121 106.306 53.4886 106.224C53.5778 106.128 53.6862 106.08 53.8137 106.08H54.77C54.8975 106.08 54.9995 106.128 55.076 106.224C55.1525 106.306 55.1908 106.416 55.1908 106.554V116.32C55.1908 116.457 55.1525 116.574 55.076 116.67C54.9995 116.753 54.8975 116.794 54.77 116.794H53.8711C53.7436 116.794 53.6352 116.753 53.5459 116.67C53.4694 116.574 53.4312 116.457 53.4312 116.32V115.413C53.0742 115.935 52.6407 116.334 52.1306 116.609C51.6206 116.87 50.9895 117 50.2372 117Z" fill="#4E4E4E"/>
<path d="M61.4748 117C60.5822 117 59.83 116.849 59.2179 116.547C58.6187 116.231 58.166 115.874 57.86 115.475C57.5667 115.077 57.4201 114.747 57.4201 114.486C57.4201 114.349 57.4647 114.246 57.554 114.177C57.656 114.095 57.758 114.054 57.86 114.054H58.7207C58.8482 114.054 58.9629 114.122 59.0649 114.26C59.3709 114.644 59.7025 114.946 60.0595 115.166C60.4165 115.386 60.8946 115.496 61.4939 115.496C62.1569 115.496 62.6925 115.359 63.1005 115.084C63.5212 114.795 63.7316 114.404 63.7316 113.909C63.7316 113.58 63.6424 113.312 63.4639 113.106C63.2981 112.886 63.0048 112.701 62.5841 112.549C62.1761 112.385 61.564 112.206 60.748 112.014C59.6387 111.753 58.8482 111.375 58.3764 110.88C57.9174 110.386 57.6879 109.747 57.6879 108.964C57.6879 108.442 57.8281 107.948 58.1086 107.481C58.4019 107 58.8227 106.615 59.3709 106.327C59.932 106.025 60.6014 105.874 61.3792 105.874C62.1952 105.874 62.8901 106.018 63.4639 106.306C64.0376 106.595 64.4648 106.938 64.7453 107.337C65.0385 107.721 65.1852 108.044 65.1852 108.305C65.1852 108.429 65.1406 108.532 65.0513 108.614C64.9748 108.696 64.8792 108.738 64.7644 108.738H63.9611C63.8081 108.738 63.6806 108.669 63.5786 108.532C63.3746 108.271 63.1961 108.071 63.0431 107.934C62.9028 107.783 62.6925 107.652 62.4119 107.543C62.1442 107.433 61.7999 107.378 61.3792 107.378C60.7671 107.378 60.2954 107.522 59.9638 107.81C59.6323 108.085 59.4666 108.449 59.4666 108.902C59.4666 109.191 59.5367 109.438 59.677 109.644C59.8172 109.837 60.085 110.015 60.4802 110.18C60.8883 110.345 61.4748 110.516 62.2398 110.695C63.4511 110.97 64.3054 111.368 64.8027 111.89C65.3127 112.398 65.5677 113.051 65.5677 113.848C65.5677 114.438 65.4083 114.974 65.0896 115.455C64.7708 115.935 64.299 116.313 63.6742 116.588C63.0622 116.863 62.3291 117 61.4748 117Z" fill="#4E4E4E"/>
<path d="M68.0687 104.081C67.9412 104.081 67.8328 104.04 67.7435 103.957C67.667 103.861 67.6288 103.745 67.6288 103.607V102.495C67.6288 102.357 67.667 102.24 67.7435 102.144C67.8328 102.048 67.9412 102 68.0687 102H69.2736C69.4011 102 69.5095 102.048 69.5988 102.144C69.688 102.24 69.7326 102.357 69.7326 102.495V103.607C69.7326 103.745 69.688 103.861 69.5988 103.957C69.5095 104.04 69.4011 104.081 69.2736 104.081H68.0687ZM68.2217 116.794C68.0942 116.794 67.9858 116.753 67.8966 116.67C67.8201 116.574 67.7818 116.457 67.7818 116.32V106.554C67.7818 106.416 67.8201 106.306 67.8966 106.224C67.9858 106.128 68.0942 106.08 68.2217 106.08H69.1397C69.2672 106.08 69.3692 106.128 69.4457 106.224C69.535 106.306 69.5796 106.416 69.5796 106.554V116.32C69.5796 116.457 69.535 116.574 69.4457 116.67C69.3692 116.753 69.2672 116.794 69.1397 116.794H68.2217Z" fill="#4E4E4E"/>
<path d="M72.8537 116.794C72.7262 116.794 72.6178 116.753 72.5286 116.67C72.4521 116.574 72.4138 116.457 72.4138 116.32V106.554C72.4138 106.416 72.4521 106.306 72.5286 106.224C72.6178 106.128 72.7262 106.08 72.8537 106.08H73.7526C73.8801 106.08 73.9821 106.128 74.0586 106.224C74.1479 106.306 74.1925 106.416 74.1925 106.554V107.46C74.5623 106.952 74.9958 106.56 75.4931 106.286C76.0031 106.011 76.6343 105.874 77.3865 105.874C78.6106 105.874 79.5605 106.299 80.2363 107.151C80.9248 107.989 81.2691 109.109 81.2691 110.51V116.32C81.2691 116.457 81.2244 116.574 81.1352 116.67C81.0587 116.753 80.9567 116.794 80.8292 116.794H79.8729C79.7454 116.794 79.637 116.753 79.5477 116.67C79.4712 116.574 79.433 116.457 79.433 116.32V110.613C79.433 109.637 79.2099 108.882 78.7636 108.346C78.3301 107.81 77.6989 107.543 76.8701 107.543C76.0668 107.543 75.4293 107.817 74.9576 108.367C74.4858 108.902 74.2499 109.651 74.2499 110.613V116.32C74.2499 116.457 74.2053 116.574 74.116 116.67C74.0395 116.753 73.9375 116.794 73.81 116.794H72.8537Z" fill="#4E4E4E"/>
<path d="M87.9907 117C86.6774 117 85.6255 116.567 84.835 115.702C84.0572 114.823 83.6301 113.628 83.5535 112.117L83.5344 111.416L83.5535 110.736C83.6428 109.253 84.0763 108.071 84.8541 107.192C85.6446 106.313 86.6838 105.874 87.9716 105.874C89.3869 105.874 90.4835 106.361 91.2612 107.337C92.039 108.298 92.4279 109.603 92.4279 111.251V111.602C92.4279 111.739 92.3833 111.856 92.294 111.952C92.2175 112.034 92.1155 112.076 91.988 112.076H85.3705V112.261C85.4087 113.154 85.6574 113.916 86.1164 114.548C86.5882 115.166 87.2066 115.475 87.9716 115.475C88.5581 115.475 89.0363 115.352 89.406 115.104C89.7886 114.843 90.0691 114.576 90.2476 114.301C90.3623 114.136 90.4452 114.04 90.4962 114.012C90.56 113.971 90.6683 113.951 90.8213 113.951H91.7585C91.8733 113.951 91.9689 113.985 92.0454 114.054C92.1219 114.122 92.1601 114.218 92.1601 114.342C92.1601 114.644 91.9816 115.008 91.6246 115.434C91.2804 115.86 90.7895 116.231 90.1519 116.547C89.5272 116.849 88.8068 117 87.9907 117ZM90.611 110.654V110.592C90.611 109.644 90.3687 108.875 89.8842 108.284C89.4124 107.68 88.7749 107.378 87.9716 107.378C87.1683 107.378 86.5308 107.68 86.059 108.284C85.6 108.875 85.3705 109.644 85.3705 110.592V110.654H90.611Z" fill="#4E4E4E"/>
<path d="M98.1574 117C97.2649 117 96.5126 116.849 95.9006 116.547C95.3013 116.231 94.8487 115.874 94.5427 115.475C94.2494 115.077 94.1028 114.747 94.1028 114.486C94.1028 114.349 94.1474 114.246 94.2366 114.177C94.3386 114.095 94.4406 114.054 94.5427 114.054H95.4033C95.5308 114.054 95.6456 114.122 95.7476 114.26C96.0536 114.644 96.3851 114.946 96.7421 115.166C97.0991 115.386 97.5773 115.496 98.1765 115.496C98.8396 115.496 99.3751 115.359 99.7831 115.084C100.204 114.795 100.414 114.404 100.414 113.909C100.414 113.58 100.325 113.312 100.146 113.106C99.9807 112.886 99.6875 112.701 99.2667 112.549C98.8587 112.385 98.2467 112.206 97.4306 112.014C96.3213 111.753 95.5308 111.375 95.059 110.88C94.6 110.386 94.3705 109.747 94.3705 108.964C94.3705 108.442 94.5108 107.948 94.7913 107.481C95.0845 107 95.5053 106.615 96.0536 106.327C96.6146 106.025 97.284 105.874 98.0618 105.874C98.8778 105.874 99.5727 106.018 100.146 106.306C100.72 106.595 101.147 106.938 101.428 107.337C101.721 107.721 101.868 108.044 101.868 108.305C101.868 108.429 101.823 108.532 101.734 108.614C101.657 108.696 101.562 108.738 101.447 108.738H100.644C100.491 108.738 100.363 108.669 100.261 108.532C100.057 108.271 99.8787 108.071 99.7257 107.934C99.5855 107.783 99.3751 107.652 99.0946 107.543C98.8268 107.433 98.4826 107.378 98.0618 107.378C97.4498 107.378 96.978 107.522 96.6465 107.81C96.315 108.085 96.1492 108.449 96.1492 108.902C96.1492 109.191 96.2193 109.438 96.3596 109.644C96.4999 109.837 96.7676 110.015 97.1629 110.18C97.5709 110.345 98.1574 110.516 98.9225 110.695C100.134 110.97 100.988 111.368 101.485 111.89C101.995 112.398 102.25 113.051 102.25 113.848C102.25 114.438 102.091 114.974 101.772 115.455C101.453 115.935 100.982 116.313 100.357 116.588C99.7449 116.863 99.0117 117 98.1574 117Z" fill="#4E4E4E"/>
<path d="M107.907 117C107.015 117 106.262 116.849 105.65 116.547C105.051 116.231 104.598 115.874 104.292 115.475C103.999 115.077 103.852 114.747 103.852 114.486C103.852 114.349 103.897 114.246 103.986 114.177C104.088 114.095 104.19 114.054 104.292 114.054H105.153C105.28 114.054 105.395 114.122 105.497 114.26C105.803 114.644 106.135 114.946 106.492 115.166C106.849 115.386 107.327 115.496 107.926 115.496C108.589 115.496 109.125 115.359 109.533 115.084C109.954 114.795 110.164 114.404 110.164 113.909C110.164 113.58 110.075 113.312 109.896 113.106C109.73 112.886 109.437 112.701 109.016 112.549C108.608 112.385 107.996 112.206 107.18 112.014C106.071 111.753 105.28 111.375 104.809 110.88C104.35 110.386 104.12 109.747 104.12 108.964C104.12 108.442 104.26 107.948 104.541 107.481C104.834 107 105.255 106.615 105.803 106.327C106.364 106.025 107.034 105.874 107.811 105.874C108.627 105.874 109.322 106.018 109.896 106.306C110.47 106.595 110.897 106.938 111.178 107.337C111.471 107.721 111.617 108.044 111.617 108.305C111.617 108.429 111.573 108.532 111.484 108.614C111.407 108.696 111.311 108.738 111.197 108.738H110.393C110.24 108.738 110.113 108.669 110.011 108.532C109.807 108.271 109.628 108.071 109.475 107.934C109.335 107.783 109.125 107.652 108.844 107.543C108.576 107.433 108.232 107.378 107.811 107.378C107.199 107.378 106.728 107.522 106.396 107.81C106.065 108.085 105.899 108.449 105.899 108.902C105.899 109.191 105.969 109.438 106.109 109.644C106.25 109.837 106.517 110.015 106.913 110.18C107.321 110.345 107.907 110.516 108.672 110.695C109.883 110.97 110.738 111.368 111.235 111.89C111.745 112.398 112 113.051 112 113.848C112 114.438 111.841 114.974 111.522 115.455C111.203 115.935 110.731 116.313 110.107 116.588C109.495 116.863 108.761 117 107.907 117Z" fill="#4E4E4E"/>
<g clip-path="url(#clip0)">
<path d="M53.038 73.3914V66.8347H51.654V73.3914L44.9077 78.0293L45.6917 79.1701L52.346 74.595L59.0003 79.1701L59.7843 78.0293L53.038 73.3914Z" fill="#E4EAF6"/>
<path d="M55.2206 62.0967V59.8608H49.4712V62.0967L52.346 64.652L55.2206 62.0967Z" fill="#E6AF78"/>
<path d="M59.6655 63.1427L55.7131 62.2128C55.6534 62.1988 55.5985 62.1749 55.5471 62.146L52.3458 64.0134L49.2693 62.0557C49.1896 62.1307 49.0909 62.1864 48.9785 62.2128L45.0261 63.1427C44.4489 63.2785 44.041 63.7935 44.041 64.3864V66.8881C44.041 67.2409 44.327 67.5269 44.6798 67.5269H60.0116C60.3644 67.5269 60.6505 67.2409 60.6505 66.8881V64.3864C60.6506 63.7936 60.2427 63.2786 59.6655 63.1427Z" fill="#707487"/>
<path d="M49.4712 59.8608V62.2199C53.0926 63.5246 55.2206 60.2592 55.2206 60.2592V59.8608H49.4712Z" fill="#D29B6E"/>
<path d="M48.1938 52.5144L48.4722 58.638C48.4982 59.2101 48.7787 59.7405 49.2368 60.0842L50.5575 61.0747C50.8892 61.3235 51.2928 61.458 51.7074 61.458H52.985C53.3996 61.458 53.8032 61.3235 54.1349 61.0747L55.4556 60.0842C55.9137 59.7406 56.1942 59.2101 56.2202 58.638L56.4985 52.5144H48.1938Z" fill="#F0C087"/>
<path d="M51.3879 53.7921C52.6656 53.7921 54.5821 53.4727 55.0367 52.5144H48.1938L48.4721 58.638C48.4981 59.2101 48.7786 59.7405 49.2367 60.0842L50.5574 61.0747C50.8892 61.3235 51.2927 61.458 51.7073 61.458H52.3461C51.7073 61.458 50.4296 60.1803 50.4296 58.5832C50.4296 57.8021 50.4296 55.7085 50.4296 54.7503C50.4297 54.4309 50.7491 53.7921 51.3879 53.7921Z" fill="#E6AF78"/>
<path d="M58.3061 65.4538L60.3759 63.5945C60.5493 63.8141 60.6511 64.0904 60.6511 64.3863V66.8879C60.6511 67.2407 60.365 67.5267 60.0122 67.5267H57.7764V66.6418C57.7764 66.1885 57.969 65.7567 58.3061 65.4538Z" fill="#5B5D6E"/>
<path d="M46.3864 65.4538L44.3167 63.5945C44.1432 63.8141 44.0415 64.0904 44.0415 64.3863V66.8879C44.0415 67.2407 44.3275 67.5267 44.6803 67.5267H46.9162V66.6418C46.9163 66.1885 46.7236 65.7567 46.3864 65.4538Z" fill="#5B5D6E"/>
<path d="M53.145 67.5268H51.5479L51.7475 64.6521H52.9454L53.145 67.5268Z" fill="#5B5D6E"/>
<path d="M53.1445 64.0132H51.5474V64.1977C51.5474 64.6251 51.8938 64.9715 52.3211 64.9715H52.3706C52.798 64.9715 53.1444 64.6251 53.1444 64.1977V64.0132H53.1445Z" fill="#515262"/>
<path d="M49.4266 61.3857L52.3462 64.0133C52.3462 64.0133 51.5285 64.426 50.5194 65.2579C50.3113 65.4296 49.9964 65.3601 49.8848 65.1144L48.5132 62.0968L48.9471 61.4459C49.0551 61.284 49.2818 61.2554 49.4266 61.3857Z" fill="#5B5D6E"/>
<path d="M55.2657 61.3857L52.3462 64.0133C52.3462 64.0133 53.1638 64.426 54.1729 65.2579C54.381 65.4296 54.696 65.3601 54.8075 65.1144L56.1792 62.0968L55.7453 61.4459C55.6372 61.284 55.4106 61.2554 55.2657 61.3857Z" fill="#5B5D6E"/>
<path d="M54.2822 50.3984L54.5817 52.5146C55.9486 52.7879 56.1456 54.9331 56.1739 55.5458C56.1791 55.657 56.2146 55.7644 56.2749 55.8579L56.7964 56.6669C56.7964 56.6669 56.6179 55.3293 57.4353 54.431C57.4353 54.431 57.7159 49.1207 54.2822 50.3984Z" fill="#785550"/>
<path d="M57.1175 56.5302L56.7568 57.9731C56.7141 58.1441 56.5604 58.264 56.3842 58.264C56.1905 58.264 56.0272 58.1198 56.0031 57.9276L55.8187 56.4519C55.7694 56.0573 56.077 55.7087 56.4748 55.7087H56.4761C56.9061 55.7087 57.2217 56.1129 57.1175 56.5302Z" fill="#F0C087"/>
<path d="M48.4999 49.8261L48.9724 50.1488C46.8364 51.7259 47.2356 54.4309 47.2356 54.4309C47.8744 55.0697 47.8744 56.6668 47.8744 56.6668L48.5133 56.0279C48.5133 56.0279 48.2667 54.1825 49.4715 53.4727C50.5895 52.8139 51.5677 53.1533 52.5658 53.1533C55.2409 53.1533 55.9895 52.1452 55.8597 50.9175C55.7926 50.2822 54.8213 48.9589 52.3462 49.001C51.3473 49.0179 49.4715 49.3204 48.4999 49.8261Z" fill="#694B4B"/>
<path d="M48.3137 52.8739C48.3137 52.8739 47.9743 51.5363 48.9724 50.1489C46.8364 51.726 47.2356 54.431 47.2356 54.431C47.8744 55.0699 47.8744 56.6669 47.8744 56.6669L48.5133 56.0281C48.5133 56.0281 48.2667 54.1827 49.4715 53.4728C50.5895 52.8141 51.5677 53.1535 52.5658 53.1535C53.0009 53.1535 53.3801 53.1243 53.7177 53.0744C51.6575 53.1434 50.443 51.5829 48.3137 52.8739Z" fill="#5A4146"/>
<path d="M47.5747 56.5302L47.9354 57.9731C47.9782 58.1441 48.1319 58.264 48.308 58.264C48.5017 58.264 48.6651 58.1198 48.6891 57.9276L48.8736 56.4519C48.9229 56.0573 48.6152 55.7087 48.2175 55.7087H48.2162C47.7861 55.7087 47.4704 56.1129 47.5747 56.5302Z" fill="#E6AF78"/>
<path d="M56.1788 66.8879H54.5817C54.2289 66.8879 53.9429 67.174 53.9429 67.5268H56.8176C56.8176 67.174 56.5315 66.8879 56.1788 66.8879Z" fill="#5B5D6E"/>
<path d="M44.8398 83.5506V81.3147H39.0903V83.5506L41.965 86.1059L44.8398 83.5506Z" fill="#E6AF78"/>
<path d="M49.2846 84.5966L45.3322 83.6666C45.2725 83.6526 45.2176 83.6287 45.1662 83.5998L41.9649 85.4673L38.8884 83.5095C38.8087 83.5845 38.71 83.6402 38.5977 83.6666L34.6452 84.5966C34.068 84.7323 33.6602 85.2473 33.6602 85.8403V88.3419C33.6602 88.6948 33.9462 88.9808 34.299 88.9808H49.6308C49.9836 88.9808 50.2696 88.6948 50.2696 88.3419V85.8403C50.2697 85.2473 49.8618 84.7323 49.2846 84.5966Z" fill="#EFF2FA"/>
<path d="M39.0903 81.3147V83.6738C42.7117 84.9784 44.8398 81.7131 44.8398 81.7131V81.3147H39.0903Z" fill="#D29B6E"/>
<path d="M37.813 73.9683L38.0913 80.0919C38.1174 80.664 38.3978 81.1944 38.856 81.538L40.1767 82.5286C40.5084 82.7774 40.9119 82.9119 41.3265 82.9119H42.6042C43.0188 82.9119 43.4224 82.7773 43.754 82.5286L45.0747 81.538C45.5328 81.1944 45.8133 80.664 45.8393 80.0919L46.1177 73.9683H37.813Z" fill="#F0C087"/>
<path d="M41.0071 75.2459C42.2848 75.2459 44.2013 74.9265 44.6558 73.9683H37.813L38.0913 80.0919C38.1173 80.664 38.3978 81.1944 38.8559 81.538L40.1766 82.5286C40.5083 82.7774 40.9118 82.9119 41.3264 82.9119H41.9653C41.3264 82.9119 40.0488 81.6342 40.0488 80.0371C40.0488 79.256 40.0488 77.1623 40.0488 76.2041C40.0488 75.8847 40.3683 75.2459 41.0071 75.2459Z" fill="#E6AF78"/>
<path d="M47.9253 86.9076L49.995 85.0483C50.1685 85.2679 50.2702 85.5443 50.2702 85.8401V88.3418C50.2702 88.6946 49.9842 88.9806 49.6314 88.9806H47.3955V88.0957C47.3955 87.6425 47.5882 87.2106 47.9253 86.9076Z" fill="#E4EAF6"/>
<path d="M36.0056 86.9076L33.9358 85.0483C33.7624 85.2679 33.6606 85.5443 33.6606 85.8401V88.3418C33.6606 88.6946 33.9467 88.9806 34.2995 88.9806H36.5353V88.0957C36.5354 87.6425 36.3428 87.2106 36.0056 86.9076Z" fill="#E4EAF6"/>
<path d="M42.7636 88.9806H41.1665L41.3662 86.106H42.5639L42.7636 88.9806Z" fill="#5B5D6E"/>
<path d="M42.7636 85.4673H41.1665V85.6518C41.1665 86.0792 41.5129 86.4256 41.9403 86.4256H41.9898C42.4171 86.4256 42.7635 86.0792 42.7635 85.6518V85.4673H42.7636Z" fill="#515262"/>
<path d="M39.0458 82.8396L41.9653 85.4671C41.9653 85.4671 41.1476 85.8799 40.1386 86.7118C39.9304 86.8835 39.6155 86.8139 39.504 86.5683L38.1323 83.5507L38.5662 82.8998C38.6744 82.7378 38.901 82.7093 39.0458 82.8396Z" fill="#E4EAF6"/>
<path d="M44.8849 82.8396L41.9653 85.4671C41.9653 85.4671 42.783 85.8799 43.792 86.7118C44.0002 86.8835 44.3151 86.8139 44.4267 86.5683L45.7983 83.5507L45.3644 82.8998C45.2563 82.7378 45.0296 82.7093 44.8849 82.8396Z" fill="#E4EAF6"/>
<path d="M43.9019 71.8522L44.2013 73.9684C45.5682 74.2418 45.7652 76.3869 45.7936 76.9997C45.7987 77.1108 45.8342 77.2183 45.8945 77.3118L46.4161 78.1208C46.4161 78.1208 46.2376 76.7832 47.0549 75.8849C47.0549 75.8847 47.3355 70.5746 43.9019 71.8522Z" fill="#785550"/>
<path d="M46.7362 77.9839L46.3755 79.4268C46.3327 79.5977 46.179 79.7177 46.0029 79.7177C45.8092 79.7177 45.6458 79.5734 45.6218 79.3813L45.4373 77.9056C45.388 77.5109 45.6957 77.1624 46.0934 77.1624H46.0947C46.5248 77.1624 46.8405 77.5666 46.7362 77.9839Z" fill="#F0C087"/>
<path d="M38.119 71.2799L38.5915 71.6026C36.4555 73.1798 36.8548 75.8848 36.8548 75.8848C37.4936 76.5236 37.4936 78.1206 37.4936 78.1206L38.1324 77.4818C38.1324 77.4818 37.8858 75.6364 39.0907 74.9266C40.2087 74.2678 41.1869 74.6072 42.185 74.6072C44.8601 74.6072 45.6087 73.5991 45.4789 72.3713C45.4118 71.736 44.4405 70.4128 41.9654 70.4548C40.9665 70.4718 39.0906 70.7742 38.119 71.2799Z" fill="#694B4B"/>
<path d="M37.9328 74.3275C37.9328 74.3275 37.5934 72.99 38.5915 71.6025C36.4555 73.1796 36.8548 75.8846 36.8548 75.8846C37.4936 76.5235 37.4936 78.1205 37.4936 78.1205L38.1324 77.4817C38.1324 77.4817 37.8858 75.6363 39.0907 74.9264C40.2087 74.2677 41.1869 74.6071 42.185 74.6071C42.6201 74.6071 42.9992 74.5779 43.3369 74.528C41.2765 74.5971 40.0622 73.0366 37.9328 74.3275Z" fill="#5A4146"/>
<path d="M37.1939 77.9841L37.5546 79.427C37.5973 79.5979 37.751 79.7178 37.9272 79.7178C38.1209 79.7178 38.2842 79.5736 38.3083 79.3815L38.4927 77.9058C38.542 77.5112 38.2344 77.1626 37.8366 77.1626H37.8353C37.4052 77.1625 37.0895 77.5668 37.1939 77.9841Z" fill="#E6AF78"/>
<path d="M45.7984 88.3418H44.2013C43.8485 88.3418 43.5625 88.6278 43.5625 88.9806H46.4373C46.4372 88.6279 46.1512 88.3418 45.7984 88.3418Z" fill="#E4EAF6"/>
<path d="M63.419 70.6807C56.9754 70.6807 57.6899 78.5165 57.7193 84.195C57.7204 84.4094 57.8328 84.6028 58.0165 84.7135C58.7306 85.1439 60.6915 86.1503 63.4191 86.1503C66.1467 86.1503 68.1076 85.1439 68.8217 84.7135C69.0054 84.6028 69.1177 84.4094 69.1189 84.195C69.1482 78.5166 69.8626 70.6807 63.419 70.6807Z" fill="#694B4B"/>
<path d="M63.0039 70.6968C57.0111 71.0328 57.6906 78.6429 57.7194 84.1949C57.7205 84.4094 57.8328 84.6027 58.0166 84.7134C58.7306 85.1439 60.6916 86.1502 63.4192 86.1502L65.0476 74.7515" fill="#5A4146"/>
<path d="M63.4193 70.6807C59.7554 70.6807 59.501 75.1078 59.501 75.1078C61.6128 74.7515 62.9104 75.6421 65.0477 74.7515L63.4193 86.1502C66.1469 86.1502 68.1078 85.1439 68.8218 84.7134C69.0055 84.6027 69.1179 84.4093 69.119 84.1949C69.1484 78.5166 69.8629 70.6807 63.4193 70.6807Z" fill="#694B4B"/>
<path d="M69.1188 84.195C69.144 79.3156 69.6708 72.8479 65.7313 71.123C65.6627 71.48 65.5381 72.4765 65.8616 73.1233C66.6759 74.7517 67.4901 74.7517 68.3042 75.9729C69.1184 80.4509 66.7484 85.2038 65.9613 85.8509C67.3559 85.5193 68.3556 84.9945 68.8217 84.7135C69.0052 84.6027 69.1177 84.4095 69.1188 84.195Z" fill="#785550"/>
<path d="M69.5881 85.43L65.9556 83.9165C65.6522 83.7901 65.4545 83.4937 65.4545 83.1649V82.1812H61.3836V83.1649C61.3836 83.4937 61.186 83.7901 60.8826 83.9165L57.2501 85.43C56.795 85.6196 56.4985 86.0643 56.4985 86.5573V88.1858C56.4985 88.6355 56.8631 89 57.3128 89H69.5255C69.9752 89 70.3397 88.6355 70.3397 88.1858V86.5573C70.3396 86.0642 70.0432 85.6196 69.5881 85.43Z" fill="#E6AF78"/>
<path d="M69.5882 85.43L66.076 83.9666L63.4192 85.1132L60.7624 83.9666L57.2501 85.43C56.795 85.6196 56.4985 86.0643 56.4985 86.5573V88.1858C56.4985 88.6355 56.8631 89 57.3128 89H69.5255C69.9752 89 70.3397 88.6355 70.3397 88.1858V86.5573C70.3397 86.0642 70.0433 85.6196 69.5882 85.43Z" fill="#EFF2FA"/>
<path d="M65.4543 82.1812H61.3834V83.1649C61.3834 83.4937 61.1857 83.7901 60.8824 83.9165L60.3149 84.1529C64.6567 85.2599 65.4543 82.1812 65.4543 82.1812Z" fill="#D29B6E"/>
<path d="M58.4828 87.0048L56.8487 85.7051C56.6297 85.929 56.4985 86.2317 56.4985 86.5573V88.1858C56.4985 88.6355 56.8631 89 57.3128 89H58.9412V87.9586C58.9411 87.5875 58.7724 87.2366 58.4828 87.0048Z" fill="#E4EAF6"/>
<path d="M70.34 88.1858V86.5574C70.34 86.2343 70.2109 85.9336 69.995 85.7102L68.3557 87.0049C68.0661 87.2366 67.8975 87.5875 67.8975 87.9586V89H69.5259C69.9754 89 70.34 88.6355 70.34 88.1858Z" fill="#E4EAF6"/>
<path d="M63.4803 88.1857H63.3582C63.1671 88.1857 63.0122 88.0308 63.0122 87.8397V85.1143H63.8264V87.8397C63.8264 88.0308 63.6714 88.1857 63.4803 88.1857Z" fill="#E4EAF6"/>
<path d="M63.4193 85.1134L61.0893 83.366C60.9397 83.2538 60.7267 83.2903 60.623 83.4458L60.1626 84.1364L61.5911 86.1363C61.6997 86.2882 61.9137 86.318 62.0596 86.2013L63.4193 85.1134Z" fill="#E4EAF6"/>
<path d="M63.4194 85.1134L65.7494 83.366C65.899 83.2538 66.1121 83.2903 66.2158 83.4458L66.6761 84.1364L65.2476 86.1363C65.139 86.2882 64.9251 86.318 64.7792 86.2013L63.4194 85.1134Z" fill="#E4EAF6"/>
<path d="M65.4544 74.3445C63.4189 76.38 59.4243 74.7516 59.4243 78.0083L59.6771 80.4072C59.726 80.9439 60.037 81.4216 60.5079 81.6833L62.8258 82.971C63.1946 83.1759 63.6431 83.1759 64.012 82.971L66.3299 81.6833C66.8009 81.4216 67.112 80.9439 67.1606 80.4072L67.4524 77.5581C67.4732 77.3556 67.4776 77.1518 67.4708 76.9486C67.3186 75.9124 65.8615 75.1587 65.4544 74.3445Z" fill="#F0C087"/>
<path d="M59.4243 78.0085L59.6771 80.4074C59.726 80.944 60.037 81.4218 60.5079 81.6835L62.8258 82.9711C63.0817 83.1133 63.3753 83.1501 63.6547 83.095C63.6547 83.095 62.4861 82.7409 61.7906 80.8582C61.5775 80.2814 61.2817 77.2282 61.5361 76.855C62.039 76.1175 64.8437 76.0408 65.6724 74.6725C65.6315 74.6218 65.5937 74.5709 65.5592 74.52C65.5565 74.5159 65.5531 74.5118 65.5503 74.5076C65.5143 74.4535 65.4817 74.3993 65.4544 74.3447C63.419 76.3801 59.4243 74.7518 59.4243 78.0085Z" fill="#E6AF78"/>
<path d="M66.3906 88.1858H65.3322C64.95 88.1858 64.6401 88.4956 64.6401 88.8778V88.9999H67.0826V88.8778C67.0826 88.4957 66.7728 88.1858 66.3906 88.1858Z" fill="#E4EAF6"/>
</g>
<path d="M35 96H195" stroke="#3CB3B3" stroke-width="2"/>
<defs>
<clipPath id="clip0">
<rect width="40" height="40" fill="white" transform="translate(32 49)"/>
</clipPath>
</defs>
</svg>
