<svg width="264" height="236" viewBox="0 0 264 236" fill="none" xmlns="http://www.w3.org/2000/svg">
<rect x="91" width="173" height="145" fill="#3CB3B3"/>
<path fill-rule="evenodd" clip-rule="evenodd" d="M94.9329 25.4702L111.445 57.5064H142.332L125.82 25.4702H151.645L161.788 45.1496H171.623L161.479 25.4702H251.255V235.72H0V25.4702H94.9329Z" fill="#ECE6E5"/>
<path d="M168.563 116C167.423 116 166.434 115.819 165.596 115.458C164.772 115.097 164.14 114.625 163.701 114.042C163.261 113.444 163.027 112.806 163 112.125C163 112.014 163.041 111.917 163.124 111.833C163.22 111.736 163.33 111.688 163.453 111.688H164.504C164.765 111.688 164.944 111.826 165.04 112.104C165.163 112.688 165.514 113.188 166.091 113.604C166.681 114.021 167.505 114.229 168.563 114.229C169.703 114.229 170.562 114.028 171.139 113.625C171.716 113.208 172.004 112.632 172.004 111.896C172.004 111.424 171.86 111.042 171.571 110.75C171.297 110.458 170.885 110.201 170.335 109.979C169.786 109.757 168.961 109.479 167.863 109.146C166.791 108.84 165.94 108.514 165.308 108.167C164.676 107.819 164.202 107.389 163.886 106.875C163.57 106.361 163.412 105.715 163.412 104.938C163.412 104.187 163.611 103.514 164.01 102.917C164.422 102.319 165.005 101.854 165.761 101.521C166.516 101.174 167.416 101 168.46 101C169.532 101 170.452 101.194 171.221 101.583C171.99 101.958 172.574 102.438 172.972 103.021C173.371 103.604 173.584 104.187 173.611 104.771C173.611 104.882 173.57 104.979 173.487 105.062C173.419 105.146 173.316 105.188 173.178 105.188H172.086C171.798 105.188 171.619 105.056 171.551 104.792C171.468 104.208 171.145 103.729 170.582 103.354C170.019 102.965 169.312 102.771 168.46 102.771C167.526 102.771 166.791 102.951 166.255 103.312C165.72 103.674 165.452 104.208 165.452 104.917C165.452 105.389 165.576 105.778 165.823 106.083C166.084 106.389 166.475 106.66 166.997 106.896C167.519 107.118 168.282 107.375 169.284 107.667C170.452 107.986 171.372 108.319 172.045 108.667C172.718 109 173.22 109.424 173.549 109.938C173.879 110.438 174.044 111.076 174.044 111.854C174.044 113.146 173.549 114.16 172.56 114.896C171.571 115.632 170.239 116 168.563 116Z" fill="#4E4E4E"/>
<path d="M180.803 116C179.334 116 178.18 115.583 177.342 114.75C176.518 113.903 176.078 112.722 176.023 111.208L176.003 110.375L176.023 109.542C176.078 108.028 176.518 106.854 177.342 106.021C178.18 105.174 179.334 104.75 180.803 104.75C181.792 104.75 182.63 104.931 183.317 105.292C184.004 105.653 184.512 106.097 184.842 106.625C185.185 107.153 185.371 107.681 185.398 108.208C185.412 108.347 185.371 108.458 185.275 108.542C185.178 108.625 185.062 108.667 184.924 108.667H183.935C183.798 108.667 183.695 108.639 183.626 108.583C183.557 108.528 183.489 108.417 183.42 108.25C183.187 107.583 182.857 107.111 182.431 106.833C182.005 106.542 181.47 106.396 180.824 106.396C179.972 106.396 179.292 106.667 178.784 107.208C178.29 107.736 178.022 108.549 177.981 109.646L177.96 110.396L177.981 111.104C178.022 112.215 178.29 113.035 178.784 113.562C179.279 114.09 179.959 114.354 180.824 114.354C181.47 114.354 182.005 114.215 182.431 113.938C182.857 113.646 183.187 113.167 183.42 112.5C183.489 112.333 183.557 112.222 183.626 112.167C183.695 112.097 183.798 112.062 183.935 112.062H184.924C185.062 112.062 185.178 112.111 185.275 112.208C185.371 112.292 185.412 112.403 185.398 112.542C185.371 113.056 185.185 113.583 184.842 114.125C184.512 114.653 184.004 115.097 183.317 115.458C182.644 115.819 181.806 116 180.803 116Z" fill="#4E4E4E"/>
<path d="M188.34 115.792C188.202 115.792 188.085 115.75 187.989 115.667C187.907 115.569 187.866 115.451 187.866 115.312V101.479C187.866 101.34 187.907 101.229 187.989 101.146C188.085 101.049 188.202 101 188.34 101H189.37C189.507 101 189.617 101.049 189.699 101.146C189.796 101.229 189.844 101.34 189.844 101.479V106.333C190.242 105.819 190.709 105.431 191.245 105.167C191.78 104.889 192.447 104.75 193.243 104.75C194.562 104.75 195.585 105.181 196.313 106.042C197.055 106.889 197.426 108.021 197.426 109.438V115.312C197.426 115.451 197.378 115.569 197.282 115.667C197.199 115.75 197.089 115.792 196.952 115.792H195.922C195.784 115.792 195.668 115.75 195.572 115.667C195.489 115.569 195.448 115.451 195.448 115.312V109.542C195.448 108.556 195.208 107.792 194.727 107.25C194.26 106.708 193.58 106.437 192.687 106.437C191.822 106.437 191.128 106.715 190.606 107.271C190.098 107.813 189.844 108.569 189.844 109.542V115.312C189.844 115.451 189.796 115.569 189.699 115.667C189.617 115.75 189.507 115.792 189.37 115.792H188.34Z" fill="#4E4E4E"/>
<path d="M204.789 116C203.278 116 202.104 115.569 201.266 114.708C200.442 113.847 200.002 112.701 199.947 111.271L199.927 110.375L199.947 109.479C200.002 108.062 200.449 106.924 201.287 106.063C202.125 105.188 203.292 104.75 204.789 104.75C206.287 104.75 207.454 105.188 208.292 106.063C209.13 106.924 209.576 108.062 209.631 109.479C209.645 109.632 209.652 109.931 209.652 110.375C209.652 110.819 209.645 111.118 209.631 111.271C209.576 112.701 209.13 113.847 208.292 114.708C207.468 115.569 206.3 116 204.789 116ZM204.789 114.396C205.655 114.396 206.335 114.118 206.829 113.562C207.337 113.007 207.612 112.208 207.653 111.167C207.667 111.028 207.674 110.764 207.674 110.375C207.674 109.986 207.667 109.722 207.653 109.583C207.612 108.542 207.337 107.743 206.829 107.188C206.335 106.632 205.655 106.354 204.789 106.354C203.924 106.354 203.237 106.632 202.729 107.188C202.221 107.743 201.953 108.542 201.925 109.583L201.905 110.375L201.925 111.167C201.953 112.208 202.221 113.007 202.729 113.562C203.237 114.118 203.924 114.396 204.789 114.396Z" fill="#4E4E4E"/>
<path d="M216.621 116C215.11 116 213.935 115.569 213.097 114.708C212.273 113.847 211.834 112.701 211.779 111.271L211.758 110.375L211.779 109.479C211.834 108.062 212.28 106.924 213.118 106.063C213.956 105.188 215.123 104.75 216.621 104.75C218.118 104.75 219.285 105.188 220.123 106.063C220.961 106.924 221.408 108.062 221.463 109.479C221.476 109.632 221.483 109.931 221.483 110.375C221.483 110.819 221.476 111.118 221.463 111.271C221.408 112.701 220.961 113.847 220.123 114.708C219.299 115.569 218.132 116 216.621 116ZM216.621 114.396C217.486 114.396 218.166 114.118 218.66 113.562C219.169 113.007 219.443 112.208 219.485 111.167C219.498 111.028 219.505 110.764 219.505 110.375C219.505 109.986 219.498 109.722 219.485 109.583C219.443 108.542 219.169 107.743 218.66 107.188C218.166 106.632 217.486 106.354 216.621 106.354C215.755 106.354 215.068 106.632 214.56 107.188C214.052 107.743 213.784 108.542 213.757 109.583L213.736 110.375L213.757 111.167C213.784 112.208 214.052 113.007 214.56 113.562C215.068 114.118 215.755 114.396 216.621 114.396Z" fill="#4E4E4E"/>
<path d="M224.558 115.792C224.42 115.792 224.304 115.75 224.207 115.667C224.125 115.569 224.084 115.451 224.084 115.312V101.479C224.084 101.34 224.125 101.229 224.207 101.146C224.304 101.049 224.42 101 224.558 101H225.526C225.663 101 225.773 101.049 225.856 101.146C225.952 101.229 226 101.34 226 101.479V115.312C226 115.451 225.952 115.569 225.856 115.667C225.773 115.75 225.663 115.792 225.526 115.792H224.558Z" fill="#4E4E4E"/>
<g clip-path="url(#clip0)">
<path d="M223.224 55.0091C223.224 54.2922 222.774 53.6816 222.143 53.4396V46.6006C222.143 46.2689 221.874 46 221.542 46C221.21 46 220.941 46.2689 220.941 46.6006V53.4399C220.31 53.6819 219.86 54.2922 219.86 55.0091C219.86 55.726 220.31 56.3363 220.941 56.5783V58.4524C220.941 58.7841 221.21 59.053 221.542 59.053C221.874 59.053 222.143 58.7841 222.143 58.4524V56.5783C222.774 56.3363 223.224 55.726 223.224 55.0091Z" fill="#FFD664"/>
<path d="M222.378 53.5515C222.52 53.7981 222.603 54.0834 222.603 54.3883C222.603 55.317 221.85 56.0701 220.921 56.0701C220.616 56.0701 220.331 55.9877 220.084 55.8458C220.375 56.3503 220.918 56.6906 221.542 56.6906C222.471 56.6906 223.224 55.9377 223.224 55.009C223.224 54.3853 222.883 53.842 222.378 53.5515Z" fill="#F9C646"/>
<path d="M222.743 46H193.273C192.942 46 192.673 46.2689 192.673 46.6006C192.673 46.9323 192.942 47.2012 193.273 47.2012H198.399V54.8489H217.618V47.2012H222.743C223.075 47.2012 223.344 46.9323 223.344 46.6006C223.344 46.2689 223.074 46 222.743 46Z" fill="#636363"/>
<path d="M203.204 72.7869L196.364 74.6869C193.591 75.4572 191.672 77.9816 191.672 80.8594V85.2188C191.672 85.6503 192.022 86.0001 192.453 86.0001H223.563C223.995 86.0001 224.345 85.6503 224.345 85.2188V80.8594C224.345 77.9816 222.426 75.4572 219.653 74.6869L212.813 72.7869H203.204Z" fill="#DDF5FF"/>
<path d="M209.529 78.5525L210.491 83.3575L208.008 86L205.525 83.3575L206.486 78.5525H209.529Z" fill="#FF6969"/>
<path d="M210.491 83.3575L209.53 78.5525H208.008L209.227 84.703C209.859 84.0304 210.491 83.3575 210.491 83.3575Z" fill="#EA4747"/>
<path d="M224.345 80.8597V85.2188C224.345 85.6503 223.995 86.0001 223.563 86.0001H208.008L212.733 81.0352L215.133 73.4314L219.653 74.6872C222.426 75.4568 224.345 77.9816 224.345 80.8597Z" fill="#636363"/>
<path d="M219.653 74.6868L219.135 74.5427C220.527 75.7323 221.381 77.4941 221.381 79.4139V85.9999H223.563C223.995 85.9999 224.345 85.6502 224.345 85.2187V80.8593C224.345 77.9814 222.426 75.457 219.653 74.6868Z" fill="#494949"/>
<path d="M196.364 74.6869L200.883 73.4314L203.284 81.0352L208.008 86.0001H192.453C192.022 86.0001 191.672 85.6503 191.672 85.2188V80.8594C191.672 77.9816 193.591 75.4572 196.364 74.6869Z" fill="#636363"/>
<path d="M210.891 70.7847L208.008 73.6674L205.125 70.7847V66.2202H210.891V70.7847Z" fill="#F9B3A7"/>
<path d="M215.536 54.8489H217.618V58.052H215.536V54.8489Z" fill="#FFD664"/>
<path d="M216.096 46.6006V51.6458C216.096 52.5302 215.379 53.2473 214.495 53.2473H198.398V54.8489H217.618V46.6006H216.096Z" fill="#494949"/>
<path d="M198.398 54.8489H200.481V58.052H198.398V54.8489Z" fill="#FFD664"/>
<path d="M208.008 54.8489H200.481V57.4914H199.28C198.395 57.4914 197.678 58.2086 197.678 59.093V60.2142C197.678 61.0986 198.395 61.8157 199.28 61.8157H200.577C201.152 65.4022 204.26 68.142 208.008 68.142C212.166 68.142 215.536 64.772 215.536 60.6146V54.8489H208.008Z" fill="#FECCC1"/>
<path d="M216.737 57.4914H215.536V54.8489H213.294V60.6146C213.294 64.3908 210.513 67.5176 206.887 68.059C207.253 68.1136 207.627 68.142 208.008 68.142C211.757 68.142 214.865 65.4022 215.44 61.8157H216.737C217.622 61.8157 218.339 61.0989 218.339 60.2142V59.0933C218.339 58.2086 217.622 57.4914 216.737 57.4914Z" fill="#F9B3A7"/>
<path d="M208.008 78.5524H209.529L211.091 76.7507L208.008 73.6675L204.925 76.7507L206.486 78.5524H208.008Z" fill="#FF6969"/>
<path d="M208.008 73.6675L207.067 74.6086L208.682 76.2233C208.979 76.5206 208.996 76.9966 208.721 77.314L207.648 78.5524H209.53L211.091 76.7507L208.008 73.6675Z" fill="#EA4747"/>
<path d="M204.925 76.7508L208.008 73.6676L205.125 70.7849L203.163 72.8003L204.925 76.7508Z" fill="#C1E9F4"/>
<path d="M211.091 76.7508L208.008 73.6676L210.891 70.7849L212.853 72.8003L211.091 76.7508Z" fill="#C1E9F4"/>
<path d="M218.859 83.5173V85.9999H217.658V83.5173C217.658 83.1859 217.927 82.9167 218.258 82.9167C218.59 82.9167 218.859 83.1859 218.859 83.5173Z" fill="#494949"/>
<path d="M197.157 85.9999V83.5173C197.157 83.1859 197.426 82.9167 197.758 82.9167C198.089 82.9167 198.358 83.1859 198.358 83.5173V85.9999H197.157Z" fill="#494949"/>
</g>
<path d="M18 97H228" stroke="#3CB3B3" stroke-width="2"/>
<path d="M201.594 150.714H198.513V153.233H202.092V154H197.575V146.891H202.043V147.662H198.513V149.947H201.594V150.714Z" fill="black"/>
<path d="M206.193 152.599C206.193 152.354 206.101 152.166 205.915 152.032C205.733 151.896 205.412 151.778 204.953 151.681C204.497 151.583 204.134 151.466 203.864 151.329C203.597 151.192 203.399 151.03 203.269 150.841C203.142 150.652 203.078 150.427 203.078 150.167C203.078 149.734 203.26 149.368 203.625 149.068C203.993 148.769 204.462 148.619 205.031 148.619C205.63 148.619 206.115 148.774 206.486 149.083C206.861 149.392 207.048 149.788 207.048 150.27H206.14C206.14 150.022 206.034 149.809 205.822 149.63C205.614 149.451 205.35 149.361 205.031 149.361C204.702 149.361 204.445 149.433 204.26 149.576C204.074 149.719 203.981 149.907 203.981 150.138C203.981 150.356 204.068 150.52 204.24 150.631C204.413 150.742 204.724 150.847 205.173 150.948C205.625 151.049 205.992 151.17 206.271 151.31C206.551 151.45 206.758 151.619 206.892 151.817C207.028 152.013 207.097 152.252 207.097 152.535C207.097 153.007 206.908 153.386 206.53 153.673C206.153 153.956 205.663 154.098 205.061 154.098C204.637 154.098 204.263 154.023 203.938 153.873C203.612 153.723 203.356 153.515 203.171 153.248C202.989 152.978 202.897 152.687 202.897 152.374H203.801C203.817 152.677 203.938 152.918 204.162 153.097C204.39 153.272 204.689 153.36 205.061 153.36C205.402 153.36 205.676 153.292 205.881 153.155C206.089 153.015 206.193 152.83 206.193 152.599Z" fill="black"/>
<path d="M211.35 152.599C211.35 152.354 211.257 152.166 211.071 152.032C210.889 151.896 210.568 151.778 210.109 151.681C209.654 151.583 209.291 151.466 209.021 151.329C208.754 151.192 208.555 151.03 208.425 150.841C208.298 150.652 208.234 150.427 208.234 150.167C208.234 149.734 208.417 149.368 208.781 149.068C209.149 148.769 209.618 148.619 210.188 148.619C210.786 148.619 211.271 148.774 211.643 149.083C212.017 149.392 212.204 149.788 212.204 150.27H211.296C211.296 150.022 211.19 149.809 210.979 149.63C210.77 149.451 210.507 149.361 210.188 149.361C209.859 149.361 209.602 149.433 209.416 149.576C209.23 149.719 209.138 149.907 209.138 150.138C209.138 150.356 209.224 150.52 209.396 150.631C209.569 150.742 209.88 150.847 210.329 150.948C210.782 151.049 211.148 151.17 211.428 151.31C211.708 151.45 211.914 151.619 212.048 151.817C212.185 152.013 212.253 152.252 212.253 152.535C212.253 153.007 212.064 153.386 211.687 153.673C211.309 153.956 210.819 154.098 210.217 154.098C209.794 154.098 209.419 154.023 209.094 153.873C208.768 153.723 208.513 153.515 208.327 153.248C208.145 152.978 208.054 152.687 208.054 152.374H208.957C208.973 152.677 209.094 152.918 209.318 153.097C209.546 153.272 209.846 153.36 210.217 153.36C210.559 153.36 210.832 153.292 211.037 153.155C211.245 153.015 211.35 152.83 211.35 152.599Z" fill="black"/>
<path d="M216.691 154C216.639 153.896 216.597 153.71 216.564 153.443C216.145 153.88 215.643 154.098 215.061 154.098C214.54 154.098 214.112 153.951 213.776 153.658C213.444 153.362 213.278 152.988 213.278 152.535C213.278 151.985 213.487 151.559 213.903 151.256C214.323 150.95 214.912 150.797 215.671 150.797H216.55V150.382C216.55 150.066 216.455 149.815 216.267 149.63C216.078 149.441 215.799 149.347 215.432 149.347C215.109 149.347 214.839 149.428 214.621 149.591C214.403 149.754 214.294 149.951 214.294 150.182H213.386C213.386 149.918 213.479 149.664 213.664 149.42C213.853 149.173 214.107 148.977 214.426 148.834C214.748 148.691 215.101 148.619 215.485 148.619C216.094 148.619 216.571 148.772 216.916 149.078C217.261 149.381 217.44 149.799 217.453 150.333V152.765C217.453 153.25 217.515 153.635 217.639 153.922V154H216.691ZM215.192 153.312C215.476 153.312 215.744 153.238 215.998 153.092C216.252 152.945 216.436 152.755 216.55 152.521V151.437H215.842C214.735 151.437 214.182 151.76 214.182 152.408C214.182 152.691 214.276 152.913 214.465 153.072C214.654 153.232 214.896 153.312 215.192 153.312Z" fill="black"/>
<path d="M220.52 152.677L221.75 148.717H222.717L220.593 154.815C220.264 155.694 219.742 156.134 219.025 156.134L218.854 156.119L218.518 156.056V155.323L218.762 155.343C219.068 155.343 219.305 155.281 219.475 155.157C219.647 155.034 219.789 154.807 219.899 154.479L220.1 153.941L218.215 148.717H219.201L220.52 152.677Z" fill="black"/>
<path d="M226.604 152.599C226.604 152.354 226.511 152.166 226.325 152.032C226.143 151.896 225.822 151.778 225.363 151.681C224.908 151.583 224.545 151.466 224.274 151.329C224.007 151.192 223.809 151.03 223.679 150.841C223.552 150.652 223.488 150.427 223.488 150.167C223.488 149.734 223.671 149.368 224.035 149.068C224.403 148.769 224.872 148.619 225.441 148.619C226.04 148.619 226.525 148.774 226.896 149.083C227.271 149.392 227.458 149.788 227.458 150.27H226.55C226.55 150.022 226.444 149.809 226.232 149.63C226.024 149.451 225.76 149.361 225.441 149.361C225.113 149.361 224.855 149.433 224.67 149.576C224.484 149.719 224.392 149.907 224.392 150.138C224.392 150.356 224.478 150.52 224.65 150.631C224.823 150.742 225.134 150.847 225.583 150.948C226.035 151.049 226.402 151.17 226.682 151.31C226.962 151.45 227.168 151.619 227.302 151.817C227.438 152.013 227.507 152.252 227.507 152.535C227.507 153.007 227.318 153.386 226.94 153.673C226.563 153.956 226.073 154.098 225.471 154.098C225.048 154.098 224.673 154.023 224.348 153.873C224.022 153.723 223.767 153.515 223.581 153.248C223.399 152.978 223.308 152.687 223.308 152.374H224.211C224.227 152.677 224.348 152.918 224.572 153.097C224.8 153.272 225.1 153.36 225.471 153.36C225.812 153.36 226.086 153.292 226.291 153.155C226.499 153.015 226.604 152.83 226.604 152.599Z" fill="black"/>
<path d="M194.782 163.124H193.112V166H192.17V158.891H194.523C195.324 158.891 195.939 159.073 196.369 159.438C196.802 159.802 197.019 160.333 197.019 161.029C197.019 161.472 196.898 161.858 196.657 162.187C196.42 162.515 196.088 162.761 195.661 162.924L197.331 165.941V166H196.325L194.782 163.124ZM193.112 162.357H194.553C195.018 162.357 195.388 162.237 195.661 161.996C195.938 161.755 196.076 161.433 196.076 161.029C196.076 160.59 195.944 160.253 195.681 160.019C195.42 159.784 195.043 159.665 194.548 159.662H193.112V162.357Z" fill="black"/>
<path d="M200.388 166.098C199.672 166.098 199.089 165.863 198.64 165.395C198.19 164.923 197.966 164.293 197.966 163.505V163.339C197.966 162.815 198.065 162.348 198.264 161.938C198.465 161.524 198.745 161.202 199.104 160.971C199.465 160.736 199.855 160.619 200.275 160.619C200.962 160.619 201.496 160.845 201.877 161.298C202.258 161.75 202.448 162.398 202.448 163.241V163.617H198.869C198.882 164.138 199.034 164.56 199.323 164.882C199.616 165.201 199.987 165.36 200.437 165.36C200.756 165.36 201.026 165.295 201.247 165.165C201.468 165.035 201.662 164.862 201.828 164.647L202.38 165.077C201.937 165.757 201.273 166.098 200.388 166.098ZM200.275 161.361C199.911 161.361 199.605 161.495 199.357 161.762C199.11 162.025 198.957 162.396 198.898 162.875H201.545V162.807C201.519 162.348 201.395 161.993 201.174 161.742C200.952 161.488 200.653 161.361 200.275 161.361Z" fill="black"/>
<path d="M205.173 164.774L206.481 160.717H207.404L205.51 166H204.821L202.907 160.717H203.83L205.173 164.774Z" fill="black"/>
<path d="M209.255 166H208.352V160.717H209.255V166ZM208.278 159.315C208.278 159.169 208.322 159.045 208.41 158.944C208.501 158.843 208.635 158.793 208.811 158.793C208.986 158.793 209.12 158.843 209.211 158.944C209.302 159.045 209.348 159.169 209.348 159.315C209.348 159.462 209.302 159.584 209.211 159.682C209.12 159.779 208.986 159.828 208.811 159.828C208.635 159.828 208.501 159.779 208.41 159.682C208.322 159.584 208.278 159.462 208.278 159.315Z" fill="black"/>
<path d="M212.897 166.098C212.181 166.098 211.599 165.863 211.149 165.395C210.7 164.923 210.476 164.293 210.476 163.505V163.339C210.476 162.815 210.575 162.348 210.773 161.938C210.975 161.524 211.255 161.202 211.613 160.971C211.975 160.736 212.365 160.619 212.785 160.619C213.472 160.619 214.006 160.845 214.387 161.298C214.768 161.75 214.958 162.398 214.958 163.241V163.617H211.379C211.392 164.138 211.543 164.56 211.833 164.882C212.126 165.201 212.497 165.36 212.946 165.36C213.265 165.36 213.535 165.295 213.757 165.165C213.978 165.035 214.172 164.862 214.338 164.647L214.89 165.077C214.447 165.757 213.783 166.098 212.897 166.098ZM212.785 161.361C212.421 161.361 212.115 161.495 211.867 161.762C211.62 162.025 211.467 162.396 211.408 162.875H214.055V162.807C214.029 162.348 213.905 161.993 213.684 161.742C213.462 161.488 213.163 161.361 212.785 161.361Z" fill="black"/>
<path d="M220.686 164.755L221.701 160.717H222.604L221.066 166H220.334L219.05 161.996L217.8 166H217.067L215.534 160.717H216.433L217.473 164.672L218.703 160.717H219.431L220.686 164.755Z" fill="black"/>
<path d="M226.604 164.599C226.604 164.354 226.511 164.166 226.325 164.032C226.143 163.896 225.822 163.778 225.363 163.681C224.908 163.583 224.545 163.466 224.274 163.329C224.007 163.192 223.809 163.03 223.679 162.841C223.552 162.652 223.488 162.427 223.488 162.167C223.488 161.734 223.671 161.368 224.035 161.068C224.403 160.769 224.872 160.619 225.441 160.619C226.04 160.619 226.525 160.774 226.896 161.083C227.271 161.392 227.458 161.788 227.458 162.27H226.55C226.55 162.022 226.444 161.809 226.232 161.63C226.024 161.451 225.76 161.361 225.441 161.361C225.113 161.361 224.855 161.433 224.67 161.576C224.484 161.719 224.392 161.907 224.392 162.138C224.392 162.356 224.478 162.52 224.65 162.631C224.823 162.742 225.134 162.847 225.583 162.948C226.035 163.049 226.402 163.17 226.682 163.31C226.962 163.45 227.168 163.619 227.302 163.817C227.438 164.013 227.507 164.252 227.507 164.535C227.507 165.007 227.318 165.386 226.94 165.673C226.563 165.956 226.073 166.098 225.471 166.098C225.048 166.098 224.673 166.023 224.348 165.873C224.022 165.723 223.767 165.515 223.581 165.248C223.399 164.978 223.308 164.687 223.308 164.374H224.211C224.227 164.677 224.348 164.918 224.572 165.097C224.8 165.272 225.1 165.36 225.471 165.36C225.812 165.36 226.086 165.292 226.291 165.155C226.499 165.015 226.604 164.83 226.604 164.599Z" fill="black"/>
<path d="M175.637 175.744C175.549 176.496 175.271 177.077 174.802 177.487C174.336 177.894 173.716 178.098 172.941 178.098C172.102 178.098 171.428 177.797 170.92 177.194C170.415 176.592 170.163 175.786 170.163 174.777V174.094C170.163 173.433 170.28 172.852 170.515 172.351C170.752 171.849 171.088 171.465 171.521 171.198C171.953 170.928 172.455 170.793 173.024 170.793C173.78 170.793 174.385 171.005 174.841 171.428C175.297 171.848 175.562 172.43 175.637 173.176H174.694C174.613 172.609 174.436 172.199 174.162 171.945C173.892 171.691 173.513 171.564 173.024 171.564C172.425 171.564 171.955 171.786 171.613 172.229C171.275 172.671 171.105 173.301 171.105 174.118V174.807C171.105 175.578 171.267 176.192 171.589 176.647C171.911 177.103 172.362 177.331 172.941 177.331C173.462 177.331 173.861 177.214 174.138 176.979C174.418 176.742 174.603 176.33 174.694 175.744H175.637Z" fill="black"/>
<path d="M176.54 175.31C176.54 174.792 176.641 174.326 176.843 173.913C177.048 173.5 177.331 173.181 177.692 172.956C178.057 172.731 178.472 172.619 178.938 172.619C179.657 172.619 180.238 172.868 180.681 173.366C181.127 173.864 181.35 174.527 181.35 175.354V175.417C181.35 175.931 181.25 176.394 181.052 176.804C180.856 177.211 180.575 177.528 180.207 177.756C179.842 177.984 179.423 178.098 178.947 178.098C178.231 178.098 177.65 177.849 177.204 177.351C176.761 176.853 176.54 176.193 176.54 175.373V175.31ZM177.448 175.417C177.448 176.003 177.583 176.473 177.854 176.828C178.127 177.183 178.492 177.36 178.947 177.36C179.406 177.36 179.771 177.181 180.041 176.823C180.311 176.462 180.446 175.957 180.446 175.31C180.446 174.73 180.308 174.261 180.031 173.903C179.758 173.542 179.393 173.361 178.938 173.361C178.492 173.361 178.132 173.539 177.858 173.894C177.585 174.248 177.448 174.756 177.448 175.417Z" fill="black"/>
<path d="M185.744 177.478C185.393 177.891 184.877 178.098 184.196 178.098C183.633 178.098 183.203 177.935 182.907 177.609C182.614 177.281 182.466 176.796 182.463 176.154V172.717H183.366V176.13C183.366 176.931 183.692 177.331 184.343 177.331C185.033 177.331 185.492 177.074 185.72 176.56V172.717H186.623V178H185.764L185.744 177.478Z" fill="black"/>
<path d="M190.554 173.527C190.417 173.505 190.269 173.493 190.109 173.493C189.517 173.493 189.115 173.745 188.903 174.25V178H188V172.717H188.879L188.894 173.327C189.19 172.855 189.61 172.619 190.153 172.619C190.329 172.619 190.463 172.642 190.554 172.688V173.527Z" fill="black"/>
<path d="M194.465 176.599C194.465 176.354 194.372 176.166 194.187 176.032C194.004 175.896 193.684 175.778 193.225 175.681C192.769 175.583 192.406 175.466 192.136 175.329C191.869 175.192 191.67 175.03 191.54 174.841C191.413 174.652 191.35 174.427 191.35 174.167C191.35 173.734 191.532 173.368 191.896 173.068C192.264 172.769 192.733 172.619 193.303 172.619C193.902 172.619 194.387 172.774 194.758 173.083C195.132 173.392 195.319 173.788 195.319 174.27H194.411C194.411 174.022 194.305 173.809 194.094 173.63C193.885 173.451 193.622 173.361 193.303 173.361C192.974 173.361 192.717 173.433 192.531 173.576C192.346 173.719 192.253 173.907 192.253 174.138C192.253 174.356 192.339 174.52 192.512 174.631C192.684 174.742 192.995 174.847 193.444 174.948C193.897 175.049 194.263 175.17 194.543 175.31C194.823 175.45 195.03 175.619 195.163 175.817C195.3 176.013 195.368 176.252 195.368 176.535C195.368 177.007 195.179 177.386 194.802 177.673C194.424 177.956 193.934 178.098 193.332 178.098C192.909 178.098 192.535 178.023 192.209 177.873C191.883 177.723 191.628 177.515 191.442 177.248C191.26 176.978 191.169 176.687 191.169 176.374H192.072C192.089 176.677 192.209 176.918 192.434 177.097C192.661 177.272 192.961 177.36 193.332 177.36C193.674 177.36 193.947 177.292 194.152 177.155C194.361 177.015 194.465 176.83 194.465 176.599Z" fill="black"/>
<path d="M198.737 178.098C198.021 178.098 197.438 177.863 196.989 177.395C196.54 176.923 196.315 176.293 196.315 175.505V175.339C196.315 174.815 196.415 174.348 196.613 173.938C196.815 173.524 197.095 173.202 197.453 172.971C197.814 172.736 198.205 172.619 198.625 172.619C199.312 172.619 199.846 172.845 200.227 173.298C200.607 173.75 200.798 174.398 200.798 175.241V175.617H197.219C197.232 176.138 197.383 176.56 197.673 176.882C197.966 177.201 198.337 177.36 198.786 177.36C199.105 177.36 199.375 177.295 199.597 177.165C199.818 177.035 200.012 176.862 200.178 176.647L200.729 177.077C200.287 177.757 199.623 178.098 198.737 178.098ZM198.625 173.361C198.26 173.361 197.954 173.495 197.707 173.762C197.46 174.025 197.307 174.396 197.248 174.875H199.895V174.807C199.868 174.348 199.745 173.993 199.523 173.742C199.302 173.488 199.003 173.361 198.625 173.361Z" fill="black"/>
<path d="M206.525 176.755L207.541 172.717H208.444L206.906 178H206.174L204.89 173.996L203.64 178H202.907L201.374 172.717H202.272L203.312 176.672L204.543 172.717H205.271L206.525 176.755Z" fill="black"/>
<path d="M209.128 175.31C209.128 174.792 209.229 174.326 209.431 173.913C209.636 173.5 209.919 173.181 210.28 172.956C210.645 172.731 211.06 172.619 211.525 172.619C212.245 172.619 212.826 172.868 213.269 173.366C213.715 173.864 213.938 174.527 213.938 175.354V175.417C213.938 175.931 213.838 176.394 213.64 176.804C213.444 177.211 213.163 177.528 212.795 177.756C212.43 177.984 212.01 178.098 211.535 178.098C210.819 178.098 210.238 177.849 209.792 177.351C209.349 176.853 209.128 176.193 209.128 175.373V175.31ZM210.036 175.417C210.036 176.003 210.171 176.473 210.441 176.828C210.715 177.183 211.079 177.36 211.535 177.36C211.994 177.36 212.359 177.181 212.629 176.823C212.899 176.462 213.034 175.957 213.034 175.31C213.034 174.73 212.896 174.261 212.619 173.903C212.346 173.542 211.981 173.361 211.525 173.361C211.079 173.361 210.72 173.539 210.446 173.894C210.173 174.248 210.036 174.756 210.036 175.417Z" fill="black"/>
<path d="M217.624 173.527C217.487 173.505 217.339 173.493 217.18 173.493C216.587 173.493 216.185 173.745 215.974 174.25V178H215.07V172.717H215.949L215.964 173.327C216.26 172.855 216.68 172.619 217.224 172.619C217.399 172.619 217.533 172.642 217.624 172.688V173.527Z" fill="black"/>
<path d="M219.934 175.554L219.367 176.145V178H218.464V170.5H219.367V175.036L219.851 174.455L221.496 172.717H222.595L220.539 174.924L222.834 178H221.774L219.934 175.554Z" fill="black"/>
<path d="M226.604 176.599C226.604 176.354 226.511 176.166 226.325 176.032C226.143 175.896 225.822 175.778 225.363 175.681C224.908 175.583 224.545 175.466 224.274 175.329C224.007 175.192 223.809 175.03 223.679 174.841C223.552 174.652 223.488 174.427 223.488 174.167C223.488 173.734 223.671 173.368 224.035 173.068C224.403 172.769 224.872 172.619 225.441 172.619C226.04 172.619 226.525 172.774 226.896 173.083C227.271 173.392 227.458 173.788 227.458 174.27H226.55C226.55 174.022 226.444 173.809 226.232 173.63C226.024 173.451 225.76 173.361 225.441 173.361C225.113 173.361 224.855 173.433 224.67 173.576C224.484 173.719 224.392 173.907 224.392 174.138C224.392 174.356 224.478 174.52 224.65 174.631C224.823 174.742 225.134 174.847 225.583 174.948C226.035 175.049 226.402 175.17 226.682 175.31C226.962 175.45 227.168 175.619 227.302 175.817C227.438 176.013 227.507 176.252 227.507 176.535C227.507 177.007 227.318 177.386 226.94 177.673C226.563 177.956 226.073 178.098 225.471 178.098C225.048 178.098 224.673 178.023 224.348 177.873C224.022 177.723 223.767 177.515 223.581 177.248C223.399 176.978 223.308 176.687 223.308 176.374H224.211C224.227 176.677 224.348 176.918 224.572 177.097C224.8 177.272 225.1 177.36 225.471 177.36C225.812 177.36 226.086 177.292 226.291 177.155C226.499 177.015 226.604 176.83 226.604 176.599Z" fill="black"/>
<path d="M169.655 190V182.891H171.662C172.281 182.891 172.827 183.027 173.303 183.301C173.778 183.574 174.144 183.963 174.401 184.468C174.662 184.972 174.794 185.552 174.797 186.206V186.66C174.797 187.331 174.667 187.918 174.406 188.423C174.149 188.927 173.78 189.315 173.298 189.585C172.819 189.855 172.261 189.993 171.623 190H169.655ZM170.593 183.662V189.233H171.579C172.302 189.233 172.863 189.009 173.264 188.56C173.667 188.11 173.869 187.471 173.869 186.641V186.226C173.869 185.418 173.679 184.792 173.298 184.346C172.92 183.896 172.383 183.669 171.687 183.662H170.593Z" fill="black"/>
<path d="M177.058 190H176.154V184.717H177.058V190ZM176.081 183.315C176.081 183.169 176.125 183.045 176.213 182.944C176.304 182.843 176.438 182.793 176.613 182.793C176.789 182.793 176.923 182.843 177.014 182.944C177.105 183.045 177.15 183.169 177.15 183.315C177.15 183.462 177.105 183.584 177.014 183.682C176.923 183.779 176.789 183.828 176.613 183.828C176.438 183.828 176.304 183.779 176.213 183.682C176.125 183.584 176.081 183.462 176.081 183.315Z" fill="black"/>
<path d="M181.584 188.599C181.584 188.354 181.491 188.166 181.306 188.032C181.123 187.896 180.803 187.778 180.344 187.681C179.888 187.583 179.525 187.466 179.255 187.329C178.988 187.192 178.789 187.03 178.659 186.841C178.532 186.652 178.469 186.427 178.469 186.167C178.469 185.734 178.651 185.368 179.016 185.068C179.383 184.769 179.852 184.619 180.422 184.619C181.021 184.619 181.506 184.774 181.877 185.083C182.251 185.392 182.438 185.788 182.438 186.27H181.53C181.53 186.022 181.424 185.809 181.213 185.63C181.005 185.451 180.741 185.361 180.422 185.361C180.093 185.361 179.836 185.433 179.65 185.576C179.465 185.719 179.372 185.907 179.372 186.138C179.372 186.356 179.458 186.52 179.631 186.631C179.803 186.742 180.114 186.847 180.563 186.948C181.016 187.049 181.382 187.17 181.662 187.31C181.942 187.45 182.149 187.619 182.282 187.817C182.419 188.013 182.487 188.252 182.487 188.535C182.487 189.007 182.299 189.386 181.921 189.673C181.543 189.956 181.053 190.098 180.451 190.098C180.028 190.098 179.654 190.023 179.328 189.873C179.003 189.723 178.747 189.515 178.562 189.248C178.379 188.978 178.288 188.687 178.288 188.374H179.191C179.208 188.677 179.328 188.918 179.553 189.097C179.781 189.272 180.08 189.36 180.451 189.36C180.793 189.36 181.066 189.292 181.271 189.155C181.48 189.015 181.584 188.83 181.584 188.599Z" fill="black"/>
<path d="M186.74 188.599C186.74 188.354 186.647 188.166 186.462 188.032C186.28 187.896 185.959 187.778 185.5 187.681C185.044 187.583 184.681 187.466 184.411 187.329C184.144 187.192 183.946 187.03 183.815 186.841C183.688 186.652 183.625 186.427 183.625 186.167C183.625 185.734 183.807 185.368 184.172 185.068C184.54 184.769 185.008 184.619 185.578 184.619C186.177 184.619 186.662 184.774 187.033 185.083C187.408 185.392 187.595 185.788 187.595 186.27H186.687C186.687 186.022 186.581 185.809 186.369 185.63C186.161 185.451 185.897 185.361 185.578 185.361C185.249 185.361 184.992 185.433 184.807 185.576C184.621 185.719 184.528 185.907 184.528 186.138C184.528 186.356 184.615 186.52 184.787 186.631C184.96 186.742 185.271 186.847 185.72 186.948C186.172 187.049 186.538 187.17 186.818 187.31C187.098 187.45 187.305 187.619 187.438 187.817C187.575 188.013 187.644 188.252 187.644 188.535C187.644 189.007 187.455 189.386 187.077 189.673C186.7 189.956 186.21 190.098 185.607 190.098C185.184 190.098 184.81 190.023 184.484 189.873C184.159 189.723 183.903 189.515 183.718 189.248C183.535 188.978 183.444 188.687 183.444 188.374H184.348C184.364 188.677 184.484 188.918 184.709 189.097C184.937 189.272 185.236 189.36 185.607 189.36C185.949 189.36 186.223 189.292 186.428 189.155C186.636 189.015 186.74 188.83 186.74 188.599Z" fill="black"/>
<path d="M192.082 190C192.03 189.896 191.988 189.71 191.955 189.443C191.535 189.88 191.034 190.098 190.451 190.098C189.93 190.098 189.502 189.951 189.167 189.658C188.835 189.362 188.669 188.988 188.669 188.535C188.669 187.985 188.877 187.559 189.294 187.256C189.714 186.95 190.303 186.797 191.062 186.797H191.94V186.382C191.94 186.066 191.846 185.815 191.657 185.63C191.468 185.441 191.19 185.347 190.822 185.347C190.5 185.347 190.23 185.428 190.012 185.591C189.794 185.754 189.685 185.951 189.685 186.182H188.776C188.776 185.918 188.869 185.664 189.055 185.42C189.243 185.173 189.497 184.977 189.816 184.834C190.139 184.691 190.492 184.619 190.876 184.619C191.485 184.619 191.962 184.772 192.307 185.078C192.652 185.381 192.831 185.799 192.844 186.333V188.765C192.844 189.25 192.906 189.635 193.029 189.922V190H192.082ZM190.583 189.312C190.866 189.312 191.135 189.238 191.389 189.092C191.643 188.945 191.826 188.755 191.94 188.521V187.437H191.232C190.126 187.437 189.572 187.76 189.572 188.408C189.572 188.691 189.667 188.913 189.855 189.072C190.044 189.232 190.287 189.312 190.583 189.312Z" fill="black"/>
<path d="M196.813 185.527C196.677 185.505 196.529 185.493 196.369 185.493C195.777 185.493 195.375 185.745 195.163 186.25V190H194.26V184.717H195.139L195.153 185.327C195.45 184.855 195.869 184.619 196.413 184.619C196.589 184.619 196.722 184.642 196.813 184.688V185.527Z" fill="black"/>
<path d="M199.118 183.438V184.717H200.104V185.415H199.118V188.691C199.118 188.903 199.162 189.062 199.25 189.17C199.338 189.274 199.488 189.326 199.699 189.326C199.803 189.326 199.947 189.307 200.129 189.268V190C199.891 190.065 199.66 190.098 199.436 190.098C199.032 190.098 198.728 189.976 198.522 189.731C198.317 189.487 198.215 189.141 198.215 188.691V185.415H197.253V184.717H198.215V183.438H199.118Z" fill="black"/>
<path d="M204.426 190C204.374 189.896 204.331 189.71 204.299 189.443C203.879 189.88 203.378 190.098 202.795 190.098C202.274 190.098 201.846 189.951 201.511 189.658C201.179 189.362 201.013 188.988 201.013 188.535C201.013 187.985 201.221 187.559 201.638 187.256C202.058 186.95 202.647 186.797 203.405 186.797H204.284V186.382C204.284 186.066 204.19 185.815 204.001 185.63C203.812 185.441 203.534 185.347 203.166 185.347C202.844 185.347 202.574 185.428 202.355 185.591C202.137 185.754 202.028 185.951 202.028 186.182H201.12C201.12 185.918 201.213 185.664 201.398 185.42C201.587 185.173 201.841 184.977 202.16 184.834C202.482 184.691 202.836 184.619 203.22 184.619C203.828 184.619 204.305 184.772 204.65 185.078C204.995 185.381 205.174 185.799 205.188 186.333V188.765C205.188 189.25 205.249 189.635 205.373 189.922V190H204.426ZM202.927 189.312C203.21 189.312 203.479 189.238 203.732 189.092C203.986 188.945 204.17 188.755 204.284 188.521V187.437H203.576C202.469 187.437 201.916 187.76 201.916 188.408C201.916 188.691 202.01 188.913 202.199 189.072C202.388 189.232 202.631 189.312 202.927 189.312Z" fill="black"/>
<path d="M207.829 183.438V184.717H208.815V185.415H207.829V188.691C207.829 188.903 207.873 189.062 207.961 189.17C208.049 189.274 208.199 189.326 208.41 189.326C208.514 189.326 208.658 189.307 208.84 189.268V190C208.602 190.065 208.371 190.098 208.146 190.098C207.743 190.098 207.438 189.976 207.233 189.731C207.028 189.487 206.926 189.141 206.926 188.691V185.415H205.964V184.717H206.926V183.438H207.829Z" fill="black"/>
<path d="M210.856 190H209.953V184.717H210.856V190ZM209.88 183.315C209.88 183.169 209.924 183.045 210.012 182.944C210.103 182.843 210.236 182.793 210.412 182.793C210.588 182.793 210.721 182.843 210.812 182.944C210.904 183.045 210.949 183.169 210.949 183.315C210.949 183.462 210.904 183.584 210.812 183.682C210.721 183.779 210.588 183.828 210.412 183.828C210.236 183.828 210.103 183.779 210.012 183.682C209.924 183.584 209.88 183.462 209.88 183.315Z" fill="black"/>
<path d="M212.067 187.31C212.067 186.792 212.168 186.326 212.37 185.913C212.575 185.5 212.858 185.181 213.22 184.956C213.584 184.731 213.999 184.619 214.465 184.619C215.184 184.619 215.765 184.868 216.208 185.366C216.654 185.864 216.877 186.527 216.877 187.354V187.417C216.877 187.931 216.778 188.394 216.579 188.804C216.384 189.211 216.102 189.528 215.734 189.756C215.37 189.984 214.95 190.098 214.475 190.098C213.758 190.098 213.177 189.849 212.731 189.351C212.289 188.853 212.067 188.193 212.067 187.373V187.31ZM212.976 187.417C212.976 188.003 213.111 188.473 213.381 188.828C213.654 189.183 214.019 189.36 214.475 189.36C214.934 189.36 215.298 189.181 215.568 188.823C215.839 188.462 215.974 187.957 215.974 187.31C215.974 186.73 215.835 186.261 215.559 185.903C215.285 185.542 214.921 185.361 214.465 185.361C214.019 185.361 213.659 185.539 213.386 185.894C213.112 186.248 212.976 186.756 212.976 187.417Z" fill="black"/>
<path d="M218.864 184.717L218.894 185.381C219.297 184.873 219.825 184.619 220.476 184.619C221.592 184.619 222.155 185.249 222.165 186.509V190H221.262V186.504C221.258 186.123 221.171 185.841 220.998 185.659C220.829 185.477 220.563 185.386 220.202 185.386C219.909 185.386 219.652 185.464 219.431 185.62C219.209 185.776 219.037 185.981 218.913 186.235V190H218.01V184.717H218.864Z" fill="black"/>
<path d="M226.604 188.599C226.604 188.354 226.511 188.166 226.325 188.032C226.143 187.896 225.822 187.778 225.363 187.681C224.908 187.583 224.545 187.466 224.274 187.329C224.007 187.192 223.809 187.03 223.679 186.841C223.552 186.652 223.488 186.427 223.488 186.167C223.488 185.734 223.671 185.368 224.035 185.068C224.403 184.769 224.872 184.619 225.441 184.619C226.04 184.619 226.525 184.774 226.896 185.083C227.271 185.392 227.458 185.788 227.458 186.27H226.55C226.55 186.022 226.444 185.809 226.232 185.63C226.024 185.451 225.76 185.361 225.441 185.361C225.113 185.361 224.855 185.433 224.67 185.576C224.484 185.719 224.392 185.907 224.392 186.138C224.392 186.356 224.478 186.52 224.65 186.631C224.823 186.742 225.134 186.847 225.583 186.948C226.035 187.049 226.402 187.17 226.682 187.31C226.962 187.45 227.168 187.619 227.302 187.817C227.438 188.013 227.507 188.252 227.507 188.535C227.507 189.007 227.318 189.386 226.94 189.673C226.563 189.956 226.073 190.098 225.471 190.098C225.048 190.098 224.673 190.023 224.348 189.873C224.022 189.723 223.767 189.515 223.581 189.248C223.399 188.978 223.308 188.687 223.308 188.374H224.211C224.227 188.677 224.348 188.918 224.572 189.097C224.8 189.272 225.1 189.36 225.471 189.36C225.812 189.36 226.086 189.292 226.291 189.155C226.499 189.015 226.604 188.83 226.604 188.599Z" fill="black"/>
<path d="M175.9 199.744C175.812 200.496 175.534 201.077 175.065 201.487C174.6 201.894 173.98 202.098 173.205 202.098C172.365 202.098 171.691 201.797 171.184 201.194C170.679 200.592 170.427 199.786 170.427 198.777V198.094C170.427 197.433 170.544 196.852 170.778 196.351C171.016 195.849 171.351 195.465 171.784 195.198C172.217 194.928 172.718 194.793 173.288 194.793C174.043 194.793 174.649 195.005 175.104 195.428C175.56 195.848 175.826 196.43 175.9 197.176H174.958C174.877 196.609 174.699 196.199 174.426 195.945C174.156 195.691 173.776 195.564 173.288 195.564C172.689 195.564 172.219 195.786 171.877 196.229C171.538 196.671 171.369 197.301 171.369 198.118V198.807C171.369 199.578 171.53 200.192 171.853 200.647C172.175 201.103 172.626 201.331 173.205 201.331C173.726 201.331 174.125 201.214 174.401 200.979C174.681 200.742 174.867 200.33 174.958 199.744H175.9Z" fill="black"/>
<path d="M180.305 202C180.253 201.896 180.21 201.71 180.178 201.443C179.758 201.88 179.257 202.098 178.674 202.098C178.153 202.098 177.725 201.951 177.39 201.658C177.058 201.362 176.892 200.988 176.892 200.535C176.892 199.985 177.1 199.559 177.517 199.256C177.937 198.95 178.526 198.797 179.284 198.797H180.163V198.382C180.163 198.066 180.069 197.815 179.88 197.63C179.691 197.441 179.413 197.347 179.045 197.347C178.723 197.347 178.452 197.428 178.234 197.591C178.016 197.754 177.907 197.951 177.907 198.182H176.999C176.999 197.918 177.092 197.664 177.277 197.42C177.466 197.173 177.72 196.977 178.039 196.834C178.361 196.691 178.715 196.619 179.099 196.619C179.707 196.619 180.184 196.772 180.529 197.078C180.874 197.381 181.053 197.799 181.066 198.333V200.765C181.066 201.25 181.128 201.635 181.252 201.922V202H180.305ZM178.806 201.312C179.089 201.312 179.357 201.238 179.611 201.092C179.865 200.945 180.049 200.755 180.163 200.521V199.437H179.455C178.348 199.437 177.795 199.76 177.795 200.408C177.795 200.691 177.889 200.913 178.078 201.072C178.267 201.232 178.509 201.312 178.806 201.312Z" fill="black"/>
<path d="M185.559 200.599C185.559 200.354 185.466 200.166 185.28 200.032C185.098 199.896 184.777 199.778 184.318 199.681C183.863 199.583 183.5 199.466 183.229 199.329C182.963 199.192 182.764 199.03 182.634 198.841C182.507 198.652 182.443 198.427 182.443 198.167C182.443 197.734 182.626 197.368 182.99 197.068C183.358 196.769 183.827 196.619 184.396 196.619C184.995 196.619 185.48 196.774 185.852 197.083C186.226 197.392 186.413 197.788 186.413 198.27H185.505C185.505 198.022 185.399 197.809 185.188 197.63C184.979 197.451 184.715 197.361 184.396 197.361C184.068 197.361 183.811 197.433 183.625 197.576C183.439 197.719 183.347 197.907 183.347 198.138C183.347 198.356 183.433 198.52 183.605 198.631C183.778 198.742 184.089 198.847 184.538 198.948C184.991 199.049 185.357 199.17 185.637 199.31C185.917 199.45 186.123 199.619 186.257 199.817C186.394 200.013 186.462 200.252 186.462 200.535C186.462 201.007 186.273 201.386 185.896 201.673C185.518 201.956 185.028 202.098 184.426 202.098C184.003 202.098 183.628 202.023 183.303 201.873C182.977 201.723 182.722 201.515 182.536 201.248C182.354 200.978 182.263 200.687 182.263 200.374H183.166C183.182 200.677 183.303 200.918 183.527 201.097C183.755 201.272 184.055 201.36 184.426 201.36C184.768 201.36 185.041 201.292 185.246 201.155C185.454 201.015 185.559 200.83 185.559 200.599Z" fill="black"/>
<path d="M189.831 202.098C189.115 202.098 188.532 201.863 188.083 201.395C187.634 200.923 187.409 200.293 187.409 199.505V199.339C187.409 198.815 187.508 198.348 187.707 197.938C187.909 197.524 188.189 197.202 188.547 196.971C188.908 196.736 189.299 196.619 189.719 196.619C190.406 196.619 190.939 196.845 191.32 197.298C191.701 197.75 191.892 198.398 191.892 199.241V199.617H188.312C188.326 200.138 188.477 200.56 188.767 200.882C189.06 201.201 189.431 201.36 189.88 201.36C190.199 201.36 190.469 201.295 190.69 201.165C190.912 201.035 191.105 200.862 191.271 200.647L191.823 201.077C191.381 201.757 190.716 202.098 189.831 202.098ZM189.719 197.361C189.354 197.361 189.048 197.495 188.801 197.762C188.553 198.025 188.4 198.396 188.342 198.875H190.988V198.807C190.962 198.348 190.839 197.993 190.617 197.742C190.396 197.488 190.096 197.361 189.719 197.361Z" fill="black"/>
<path d="M197.658 198.831C196.854 198.6 196.268 198.317 195.9 197.981C195.536 197.643 195.354 197.226 195.354 196.731C195.354 196.172 195.576 195.709 196.022 195.345C196.472 194.977 197.054 194.793 197.771 194.793C198.259 194.793 198.693 194.887 199.074 195.076C199.458 195.265 199.755 195.525 199.963 195.857C200.174 196.189 200.28 196.552 200.28 196.946H199.338C199.338 196.517 199.201 196.18 198.928 195.936C198.654 195.688 198.269 195.564 197.771 195.564C197.308 195.564 196.947 195.667 196.687 195.872C196.429 196.074 196.301 196.355 196.301 196.717C196.301 197.007 196.423 197.252 196.667 197.454C196.914 197.653 197.333 197.835 197.922 198.001C198.514 198.167 198.977 198.351 199.309 198.553C199.644 198.751 199.891 198.984 200.051 199.251C200.214 199.518 200.295 199.832 200.295 200.193C200.295 200.77 200.07 201.232 199.621 201.58C199.172 201.925 198.571 202.098 197.819 202.098C197.331 202.098 196.875 202.005 196.452 201.819C196.029 201.631 195.702 201.373 195.471 201.048C195.243 200.722 195.129 200.353 195.129 199.939H196.071C196.071 200.369 196.229 200.709 196.545 200.96C196.864 201.207 197.289 201.331 197.819 201.331C198.314 201.331 198.693 201.23 198.957 201.028C199.221 200.826 199.353 200.551 199.353 200.203C199.353 199.855 199.23 199.586 198.986 199.397C198.742 199.205 198.299 199.017 197.658 198.831Z" fill="black"/>
<path d="M202.585 195.438V196.717H203.571V197.415H202.585V200.691C202.585 200.903 202.629 201.062 202.717 201.17C202.805 201.274 202.954 201.326 203.166 201.326C203.27 201.326 203.413 201.307 203.596 201.268V202C203.358 202.065 203.127 202.098 202.902 202.098C202.499 202.098 202.194 201.976 201.989 201.731C201.784 201.487 201.682 201.141 201.682 200.691V197.415H200.72V196.717H201.682V195.438H202.585Z" fill="black"/>
<path d="M207.893 201.478C207.541 201.891 207.025 202.098 206.345 202.098C205.782 202.098 205.352 201.935 205.056 201.609C204.763 201.281 204.615 200.796 204.611 200.154V196.717H205.515V200.13C205.515 200.931 205.84 201.331 206.491 201.331C207.181 201.331 207.64 201.074 207.868 200.56V196.717H208.771V202H207.912L207.893 201.478Z" fill="black"/>
<path d="M209.929 199.314C209.929 198.504 210.121 197.853 210.505 197.361C210.889 196.867 211.392 196.619 212.014 196.619C212.632 196.619 213.122 196.831 213.483 197.254V194.5H214.387V202H213.557L213.513 201.434C213.151 201.876 212.648 202.098 212.004 202.098C211.392 202.098 210.892 201.847 210.505 201.346C210.121 200.844 209.929 200.19 209.929 199.383V199.314ZM210.832 199.417C210.832 200.016 210.956 200.485 211.203 200.823C211.451 201.162 211.792 201.331 212.229 201.331C212.801 201.331 213.22 201.074 213.483 200.56V198.133C213.213 197.635 212.798 197.386 212.238 197.386C211.796 197.386 211.451 197.557 211.203 197.898C210.956 198.24 210.832 198.746 210.832 199.417Z" fill="black"/>
<path d="M216.774 202H215.871V196.717H216.774V202ZM215.798 195.315C215.798 195.169 215.842 195.045 215.93 194.944C216.021 194.843 216.154 194.793 216.33 194.793C216.506 194.793 216.639 194.843 216.73 194.944C216.822 195.045 216.867 195.169 216.867 195.315C216.867 195.462 216.822 195.584 216.73 195.682C216.639 195.779 216.506 195.828 216.33 195.828C216.154 195.828 216.021 195.779 215.93 195.682C215.842 195.584 215.798 195.462 215.798 195.315Z" fill="black"/>
<path d="M220.417 202.098C219.701 202.098 219.118 201.863 218.669 201.395C218.22 200.923 217.995 200.293 217.995 199.505V199.339C217.995 198.815 218.094 198.348 218.293 197.938C218.495 197.524 218.775 197.202 219.133 196.971C219.494 196.736 219.885 196.619 220.305 196.619C220.992 196.619 221.525 196.845 221.906 197.298C222.287 197.75 222.478 198.398 222.478 199.241V199.617H218.898C218.911 200.138 219.063 200.56 219.353 200.882C219.646 201.201 220.017 201.36 220.466 201.36C220.785 201.36 221.055 201.295 221.276 201.165C221.498 201.035 221.691 200.862 221.857 200.647L222.409 201.077C221.966 201.757 221.302 202.098 220.417 202.098ZM220.305 197.361C219.94 197.361 219.634 197.495 219.387 197.762C219.139 198.025 218.986 198.396 218.928 198.875H221.574V198.807C221.548 198.348 221.424 197.993 221.203 197.742C220.982 197.488 220.682 197.361 220.305 197.361Z" fill="black"/>
<path d="M226.604 200.599C226.604 200.354 226.511 200.166 226.325 200.032C226.143 199.896 225.822 199.778 225.363 199.681C224.908 199.583 224.545 199.466 224.274 199.329C224.007 199.192 223.809 199.03 223.679 198.841C223.552 198.652 223.488 198.427 223.488 198.167C223.488 197.734 223.671 197.368 224.035 197.068C224.403 196.769 224.872 196.619 225.441 196.619C226.04 196.619 226.525 196.774 226.896 197.083C227.271 197.392 227.458 197.788 227.458 198.27H226.55C226.55 198.022 226.444 197.809 226.232 197.63C226.024 197.451 225.76 197.361 225.441 197.361C225.113 197.361 224.855 197.433 224.67 197.576C224.484 197.719 224.392 197.907 224.392 198.138C224.392 198.356 224.478 198.52 224.65 198.631C224.823 198.742 225.134 198.847 225.583 198.948C226.035 199.049 226.402 199.17 226.682 199.31C226.962 199.45 227.168 199.619 227.302 199.817C227.438 200.013 227.507 200.252 227.507 200.535C227.507 201.007 227.318 201.386 226.94 201.673C226.563 201.956 226.073 202.098 225.471 202.098C225.048 202.098 224.673 202.023 224.348 201.873C224.022 201.723 223.767 201.515 223.581 201.248C223.399 200.978 223.308 200.687 223.308 200.374H224.211C224.227 200.677 224.348 200.918 224.572 201.097C224.8 201.272 225.1 201.36 225.471 201.36C225.812 201.36 226.086 201.292 226.291 201.155C226.499 201.015 226.604 200.83 226.604 200.599Z" fill="black"/>
<defs>
<clipPath id="clip0">
<rect width="40" height="40" fill="white" transform="translate(188 46)"/>
</clipPath>
</defs>
</svg>
