<svg width="30" height="32" viewBox="0 0 30 32" fill="none" xmlns="http://www.w3.org/2000/svg">
<path d="M28.5238 7.67522C27.8477 4.72994 24.6927 1.54899 21.7631 0.84212C17.0306 -0.100368 12.2981 -0.100368 7.56566 0.84212C4.63603 1.54899 1.48104 4.61216 0.804975 7.55744C-0.0964499 11.6808 -0.0964499 15.8042 0.804975 19.9276C1.48104 22.7551 4.41062 25.8181 7.22757 26.6428V29.9415C7.22757 31.1196 8.57973 31.7086 9.36848 30.8839L12.5235 27.4674C13.1996 27.4674 13.8755 27.5853 14.6643 27.5853C17.0305 27.5853 19.3968 27.3496 21.7631 26.8783C24.6927 26.1715 27.8477 23.1084 28.5238 20.1632C29.4252 16.0398 29.4252 11.7986 28.5238 7.67522ZM26.0449 19.5741C25.5942 21.4591 23.2279 23.9331 21.3123 24.2866C18.8334 24.7578 16.2419 24.9934 13.763 24.8756H13.6503C13.3123 25.229 11.284 27.3496 11.284 27.3496L8.80509 30.0593C8.57973 30.2949 8.35435 30.177 8.35435 29.8236V24.4043C8.35435 24.2865 8.2417 24.2866 8.2417 24.1688C6.32617 23.6975 3.95999 21.3413 3.50928 19.4563C2.72053 15.6864 2.72053 11.9164 3.50928 8.26427C3.95999 6.3793 6.32617 3.90527 8.2417 3.55183C12.6361 2.72715 17.0305 2.72715 21.425 3.55183C23.3405 4.02308 25.7068 6.3793 26.1575 8.26427C26.8336 12.0342 26.8336 15.8042 26.0449 19.5741Z" fill="white"/>
<path d="M20.9746 18.5138C20.6366 18.1604 20.1858 17.807 19.735 17.5714C19.2843 17.218 18.8336 16.9823 18.4956 16.6289C18.0449 16.3933 17.4816 16.3933 17.1435 16.7467C16.6928 17.1001 16.5802 17.807 15.9041 17.807C15.566 17.807 15.228 17.6892 14.8899 17.5714C12.9744 16.7468 11.7349 15.2152 11.0588 13.2125C10.9462 12.9769 10.9461 12.6235 11.1715 12.3879C11.2842 12.2701 11.3969 12.1522 11.5096 12.0344C11.6223 11.9166 11.7349 11.7989 11.8475 11.6811C12.4109 11.3277 12.5237 10.503 12.1856 9.91397C11.6222 8.97151 11.0589 8.029 10.3828 7.20435C10.0448 6.85092 9.59405 6.73317 9.25601 6.96879C8.69262 7.2044 8.24185 7.67563 7.79113 8.14686C7.34042 8.61809 7.00238 9.44271 7.22774 10.0317C7.56577 10.7386 7.79119 11.5633 8.12922 12.2701C8.91797 13.8016 9.70675 15.333 10.8335 16.6289C12.7491 18.8673 15.2279 20.3987 17.9322 21.5768C18.1576 21.6946 18.4957 21.6947 18.7211 21.8125C18.9464 21.6947 19.2844 21.6946 19.5097 21.5768C20.2985 21.1055 20.8619 20.3987 21.1999 19.5741C21.538 19.3385 21.4253 18.8672 20.9746 18.5138Z" fill="white"/>
<path d="M14.6641 6.14355C14.7768 6.14355 18.0444 6.26136 14.6641 6.14355C14.5514 6.14355 14.5515 6.14355 14.4388 6.14355C14.2134 6.14355 13.988 6.3792 13.988 6.61482C13.988 6.96825 14.326 6.96831 14.6641 6.96831C15.1148 6.96831 15.4529 7.08609 15.9037 7.08609C18.4953 7.55733 20.6361 9.79568 20.9742 12.5053C21.0869 12.9765 21.0868 13.5656 21.0868 14.0369C21.0868 14.2725 21.1995 14.508 21.5376 14.508C21.7629 14.508 21.9882 14.2725 21.9882 14.0369C21.9882 13.4478 21.8755 12.7409 21.7629 12.1518C21.0868 8.73534 18.1571 6.26136 14.6641 6.14355Z" fill="white"/>
<path d="M19.1719 13.331C19.1719 13.4488 19.1719 13.5667 19.1719 13.6845C19.2846 14.0379 19.8481 14.0379 19.9608 13.6845C19.9608 13.5667 19.9608 13.4489 19.9608 13.4489C19.9608 13.2132 19.9608 12.9776 19.9608 12.8598C19.9608 12.742 19.9608 12.7419 19.9608 12.624C19.7354 10.9745 18.8339 9.67853 17.3691 8.85376C16.693 8.50029 15.9043 8.26465 15.1155 8.26465C14.8902 8.26465 14.6648 8.38239 14.6648 8.61803C14.6648 8.85368 14.7775 8.97153 15.0029 9.08935C15.2282 9.08935 15.4536 9.08932 15.5663 9.20715C16.017 9.32497 16.4676 9.44282 16.9184 9.67847C17.5944 10.0319 18.1578 10.6211 18.6085 11.328C19.0592 11.7993 19.1719 12.5062 19.1719 13.331Z" fill="white"/>
<path d="M18.158 12.9772C18.158 12.8594 18.158 12.7415 18.158 12.6237C18.0453 10.9742 17.0312 10.2672 15.679 10.1494C15.4537 10.1494 15.2283 10.2673 15.2283 10.5029C15.2283 10.7386 15.341 10.9741 15.5664 10.9741C15.7917 10.9741 16.017 10.9742 16.2424 11.0921C16.4678 11.0921 16.5805 11.2098 16.6931 11.3277C17.0312 11.5633 17.1439 11.9168 17.2565 12.2703C17.2565 12.5059 17.3692 12.6238 17.3692 12.8594C17.3692 13.0951 17.5946 13.3306 17.8199 13.3306C17.7072 13.3306 17.7072 13.3306 17.8199 13.3306C17.9326 13.2128 18.158 13.2129 18.158 12.9772Z" fill="white"/>
</svg>
