<svg width="31" height="32" viewBox="0 0 31 32" fill="none" xmlns="http://www.w3.org/2000/svg">
<path fill-rule="evenodd" clip-rule="evenodd" d="M30.085 15.4503C30.085 23.815 23.4371 30.6482 15.3242 30.6482C12.7326 30.6482 10.2537 29.9414 8.2255 28.7632L0 31.4728L2.70424 23.3437C1.3521 21.1053 0.563391 18.3956 0.563391 15.4503C0.563391 7.08561 7.21138 0.252441 15.3242 0.252441C23.4371 0.252441 30.085 6.9678 30.085 15.4503ZM15.3242 2.6087C8.45084 2.6087 2.92961 8.38155 2.92961 15.4503C2.92961 18.2778 3.83101 20.8697 5.29582 22.9904L3.71837 27.7029L8.45087 26.1713C10.3664 27.4672 12.7326 28.292 15.3242 28.292C22.1976 28.292 27.7188 22.5191 27.7188 15.4503C27.7188 8.38155 22.1976 2.6087 15.3242 2.6087ZM22.761 18.9847C22.6483 18.8669 22.423 18.7491 22.0849 18.5134C21.7469 18.2778 19.944 17.4531 19.606 17.3353C19.2679 17.2175 19.0426 17.0998 18.8172 17.571C18.5919 17.9245 17.9158 18.7491 17.6904 18.9847C17.4651 19.2203 17.2398 19.2203 16.9017 19.1025C16.5637 18.8669 15.3242 18.5135 13.9721 17.2175C12.8453 16.275 12.1692 14.9791 11.9439 14.6257C11.7185 14.2723 11.9438 14.0365 12.0565 13.9187C12.1692 13.8009 12.3946 13.4475 12.6199 13.2119C12.8453 12.9762 12.8453 12.8584 12.958 12.6228C13.0707 12.3872 13.0707 12.1516 12.958 11.9159C12.8453 11.6803 12.1693 9.91309 11.8312 9.0884C11.4932 8.38153 11.2678 8.49934 11.0425 8.49934C10.8171 8.49934 10.5917 8.49934 10.3663 8.49934C10.141 8.49934 9.69032 8.61718 9.35228 8.97062C9.01425 9.32406 8.11278 10.2665 8.11278 12.0337C8.11278 13.9187 9.46498 15.686 9.57765 15.9216C9.80301 16.1572 12.0566 20.045 15.775 21.5765C19.4933 23.1081 19.4933 22.5191 20.1694 22.5191C20.8454 22.4013 22.3103 21.5766 22.6483 20.7519C22.8737 19.8094 22.8736 19.1025 22.761 18.9847Z" fill="white"/>
</svg>
