<svg width="307" height="211" viewBox="0 0 307 211" fill="none" xmlns="http://www.w3.org/2000/svg">
<path d="M138.734 123.344C138.734 151.656 132.875 173.312 121.156 188.312C109.438 203.312 92.2812 210.812 69.6875 210.812C47.375 210.812 30.3125 203.453 18.5 188.734C6.6875 174.016 0.640625 152.922 0.359375 125.453V87.7656C0.359375 59.1719 6.26562 37.4687 18.0781 22.6562C29.9844 7.84375 47.0938 0.4375 69.4062 0.4375C91.7188 0.4375 108.781 7.79687 120.594 22.5156C132.406 37.1406 138.453 58.1875 138.734 85.6562V123.344ZM98.0938 82C98.0938 65.0312 95.75 52.7031 91.0625 45.0156C86.4688 37.2344 79.25 33.3438 69.4062 33.3438C59.8438 33.3438 52.7656 37.0469 48.1719 44.4531C43.6719 51.7656 41.2812 63.25 41 78.9062V128.688C41 145.375 43.25 157.797 47.75 165.953C52.3438 174.016 59.6562 178.047 69.6875 178.047C79.625 178.047 86.7969 174.156 91.2031 166.375C95.6094 158.594 97.9062 146.688 98.0938 130.656V82ZM306.641 208H166.297V180.156L232.531 109.562C241.625 99.625 248.328 90.9531 252.641 83.5469C257.047 76.1406 259.25 69.1094 259.25 62.4531C259.25 53.3594 256.953 46.2344 252.359 41.0781C247.766 35.8281 241.203 33.2031 232.672 33.2031C223.484 33.2031 216.219 36.3906 210.875 42.7656C205.625 49.0469 203 57.3438 203 67.6562H162.219C162.219 55.1875 165.172 43.7969 171.078 33.4844C177.078 23.1719 185.516 15.1094 196.391 9.29688C207.266 3.39062 219.594 0.4375 233.375 0.4375C254.469 0.4375 270.828 5.5 282.453 15.625C294.172 25.75 300.031 40.0469 300.031 58.5156C300.031 68.6406 297.406 78.9531 292.156 89.4531C286.906 99.9531 277.906 112.188 265.156 126.156L218.609 175.234H306.641V208Z" fill="#3CB3B3" fill-opacity="0.5"/>
</svg>
