<svg width="304" height="211" viewBox="0 0 304 211" fill="none" xmlns="http://www.w3.org/2000/svg">
<path d="M138.734 123.344C138.734 151.656 132.875 173.312 121.156 188.312C109.438 203.312 92.2812 210.812 69.6875 210.812C47.375 210.812 30.3125 203.453 18.5 188.734C6.6875 174.016 0.640625 152.922 0.359375 125.453V87.7656C0.359375 59.1719 6.26562 37.4687 18.0781 22.6562C29.9844 7.84375 47.0938 0.4375 69.4062 0.4375C91.7188 0.4375 108.781 7.79687 120.594 22.5156C132.406 37.1406 138.453 58.1875 138.734 85.6562V123.344ZM98.0938 82C98.0938 65.0312 95.75 52.7031 91.0625 45.0156C86.4688 37.2344 79.25 33.3438 69.4062 33.3438C59.8438 33.3438 52.7656 37.0469 48.1719 44.4531C43.6719 51.7656 41.2812 63.25 41 78.9062V128.688C41 145.375 43.25 157.797 47.75 165.953C52.3438 174.016 59.6562 178.047 69.6875 178.047C79.625 178.047 86.7969 174.156 91.2031 166.375C95.6094 158.594 97.9062 146.688 98.0938 130.656V82ZM207.641 87.625H229.297C239.609 87.625 247.25 85.0469 252.219 79.8906C257.188 74.7344 259.672 67.8906 259.672 59.3594C259.672 51.1094 257.188 44.6875 252.219 40.0938C247.344 35.5 240.594 33.2031 231.969 33.2031C224.188 33.2031 217.672 35.3594 212.422 39.6719C207.172 43.8906 204.547 49.4219 204.547 56.2656H163.906C163.906 45.5781 166.766 36.0156 172.484 27.5781C178.297 19.0469 186.359 12.3906 196.672 7.60938C207.078 2.82812 218.516 0.4375 230.984 0.4375C252.641 0.4375 269.609 5.64062 281.891 16.0469C294.172 26.3594 300.312 40.6094 300.312 58.7969C300.312 68.1719 297.453 76.7969 291.734 84.6719C286.016 92.5469 278.516 98.5938 269.234 102.812C280.766 106.938 289.344 113.125 294.969 121.375C300.688 129.625 303.547 139.375 303.547 150.625C303.547 168.812 296.891 183.391 283.578 194.359C270.359 205.328 252.828 210.812 230.984 210.812C210.547 210.812 193.812 205.422 180.781 194.641C167.844 183.859 161.375 169.609 161.375 151.891H202.016C202.016 159.578 204.875 165.859 210.594 170.734C216.406 175.609 223.531 178.047 231.969 178.047C241.625 178.047 249.172 175.516 254.609 170.453C260.141 165.297 262.906 158.5 262.906 150.062C262.906 129.625 251.656 119.406 229.156 119.406H207.641V87.625Z" fill="#3CB3B3" fill-opacity="0.5"/>
</svg>
