<svg width="306" height="211" viewBox="0 0 306 211" fill="none" xmlns="http://www.w3.org/2000/svg">
<path d="M138.734 123.344C138.734 151.656 132.875 173.312 121.156 188.312C109.438 203.312 92.2812 210.812 69.6875 210.812C47.375 210.812 30.3125 203.453 18.5 188.734C6.6875 174.016 0.640625 152.922 0.359375 125.453V87.7656C0.359375 59.1719 6.26562 37.4687 18.0781 22.6562C29.9844 7.84375 47.0938 0.4375 69.4062 0.4375C91.7188 0.4375 108.781 7.79687 120.594 22.5156C132.406 37.1406 138.453 58.1875 138.734 85.6562V123.344ZM98.0938 82C98.0938 65.0312 95.75 52.7031 91.0625 45.0156C86.4688 37.2344 79.25 33.3438 69.4062 33.3438C59.8438 33.3438 52.7656 37.0469 48.1719 44.4531C43.6719 51.7656 41.2812 63.25 41 78.9062V128.688C41 145.375 43.25 157.797 47.75 165.953C52.3438 174.016 59.6562 178.047 69.6875 178.047C79.625 178.047 86.7969 174.156 91.2031 166.375C95.6094 158.594 97.9062 146.688 98.0938 130.656V82ZM172.344 107.312L184.156 3.25H298.906V37.1406H217.484L212.422 81.1562C222.078 76 232.344 73.4219 243.219 73.4219C262.719 73.4219 278 79.4688 289.062 91.5625C300.125 103.656 305.656 120.578 305.656 142.328C305.656 155.547 302.844 167.406 297.219 177.906C291.688 188.312 283.719 196.422 273.312 202.234C262.906 207.953 250.625 210.812 236.469 210.812C224.094 210.812 212.609 208.328 202.016 203.359C191.422 198.297 183.031 191.219 176.844 182.125C170.75 173.031 167.516 162.672 167.141 151.047H207.359C208.203 159.578 211.156 166.234 216.219 171.016C221.375 175.703 228.078 178.047 236.328 178.047C245.516 178.047 252.594 174.766 257.562 168.203C262.531 161.547 265.016 152.172 265.016 140.078C265.016 128.453 262.156 119.547 256.438 113.359C250.719 107.172 242.609 104.078 232.109 104.078C222.453 104.078 214.625 106.609 208.625 111.672L204.688 115.328L172.344 107.312Z" fill="#3CB3B3" fill-opacity="0.5"/>
</svg>
